
<svg viewBox="0 0 300 300" width="60" height="60" xmlns="http://www.w3.org/2000/svg" xmlns:xlink="http://www.w3.org/2000/xlink">                
<g style="color:#056982">
    <rect fill="#B46969" x="0" y="0" width="320" height="320"></rect>
    <g fill="currentColor"><path d="M180.45 252.21s-17.95-2.71-29.95 2.29-15 8-16 24c0 0 1 27 1 28s49 1 49 1v-9a27.15 27.15 0 0 1-3-13c0-8 7-6.16 7-6.16s-11.5-.34-11.26-16.09a16.2 16.2 0 0 1 3.21-11.04z"/><path d="M133.5 277.5s-6.92-1.5-8-5.25l-.68-1.62c-.37-6.66 1.07-12 5.72-15 0 0 5.17-4.37 11.55-4.24 0 0 5.37.13 7.37 3.13 0 0-9 3.6-12 9.3s-3.09 13.32-3 14zM188.5 247.5s-8 2-10 8-3 19 8 23 19-7 19-17-4-16-17-14z"/></g><path d="M134.5 254.5s3-1 3 0-6 5-7 10 0 8-2 8-4.67.09-2.84-10.45a13 13 0 0 1 8.84-7.55z" fill="#fff" fill-opacity=".4"/><path d="M133.5 277.5s-6.92-1.5-8-5.25l-.68-1.62c-.37-6.66 1.07-12 5.72-15 0 0 5.17-4.37 11.55-4.24 0 0 5.37.13 7.37 3.13 0 0-9 3.6-12 9.3s-3.09 13.32-3 14z" stroke-miterlimit="10" stroke="#000" fill="none"/><path d="M189.5 248.5s9 0 9 10-4 16-9 17-7 .77-7 .77a12.77 12.77 0 0 0 8 3.07c5 .16 15-4.84 15-17.84s-7.26-14.64-14.13-14.32-2.87 1.32-1.87 1.32z" fill-opacity=".2"/><path d="M188.5 247.5s-8 2-10 8-3 19 8 23 19-7 19-17-4-16-17-14z" stroke-miterlimit="10" stroke="#000" fill="none"/><path d="M201.86 273.17s9.64 10.33 9.64 28.33h-13s2.74-14.31-7.13-22.15a11.59 11.59 0 0 0 10.49-6.18z" fill="#6d6e70" stroke-miterlimit="10" stroke="#000"/><path d="M197.5 279.5s5 8 6 15 0 9 0 9h8s1.5-10.5-4.74-22.76c0 0-3.26-6.24-5.26-7.24a22 22 0 0 1-4.74 4.65z" fill-opacity=".2"/><path d="M180.45 252.21s-17.95-2.71-29.95 2.29-15 8-16 24c0 0 1 27 1 28s49 1 49 1v-9a27.15 27.15 0 0 1-3-13c0-8 7-6.16 7-6.16s-11.5-.34-11.26-16.09a16.2 16.2 0 0 1 3.21-11.04z" stroke-miterlimit="10" stroke="#000" fill="none"/><path d="M169.5 304.5s-7-21 0-42c0 0 3.39-7.79 10.2-10.39l.8.39s-3.64 3.11-3.32 10.06 2.16 14.4 9.74 16.17a5.19 5.19 0 0 0-5 3.77c-1.44 4 .38 11.28 1.47 13.64a13.05 13.05 0 0 1 1.11 4.86z" fill-opacity=".2" stroke-miterlimit="10" stroke="#000"/><path d="M142.5 259.5a2.19 2.19 0 0 1 3 1q1.5 3-3 9c-3 4-3 14-2 19s2 10 2 13h-7.16s-1.34-17.5-.59-26.24 2.49-12.37 6.12-15.56z" fill="#fff" fill-opacity=".4"/><path d="M150 254.71s-4.5-4.21-10.5-3.21-14 6-15 15 9 12 10 12c0 0-2-18.58 15.5-23.79z" stroke-miterlimit="10" stroke="#000" fill="none"/><path d="M130.17 276.81a64.62 64.62 0 0 1-1.51 10.87c-1.2 5.22-3.35 11-7.16 13.82l13.79-.59s-.79-21.41-.79-22.41z" fill="#6d6e70" stroke-miterlimit="10" stroke="#000"/><path d="M134.5 290.5s-2.86-2.88-5.93-2.44M124 299s5.55-1.48 9 2" stroke-miterlimit="10" stroke="#000" fill="none"/><path d="M150 192s1 61 2 64c0 0 2 5 10 3 0 0 6-1 6-7 0 0-3.5-40.5-2.5-60.5 0 0-13 0-15.5.5z" fill="#6d6e70" stroke-miterlimit="10" stroke="#000"/><path d="M164.5 202.5s0 3-5 3-8.56-1-9.28-1.5M165 214.5s-1 2-5.18 2a39.35 39.35 0 0 1-9.38-1.58" stroke-linecap="round" stroke-linejoin="round" stroke="#000" fill="none"/><path d="M166 224.5s0 2-4.62 3-10.38-1-10.38-1M166 233.5s0 2-3.21 3a16.53 16.53 0 0 1-11.79-1M167 244.5a7 7 0 0 1-5.17 4c-4.13 1-10.48-1.51-10.48-1.51M207 281.6s-4-2.4-12 2.4M211.42 296.16s-2.24-4.33-12.58 1.51" stroke-miterlimit="10" stroke="#000" fill="none"/><path d="M159 191.5h6.5v10s1 20 .89 29.33a182.26 182.26 0 0 0 1.61 21.92c-.5 4.25-5.5 5.75-5.5 5.75v-2c0-2 1-15 1-23s-4-40-4-40z" fill-opacity=".2"/>
    <path d="M177 71s-73-2-82 51c0 0-4.5 17.5 1.5 40.5s14 50 14 50 6 10 46 6 75-25 75-25-10-100-16-108S203 72 177 71z" fill="currentColor"/><path d="M135.5 78.5s1 4-5 9-20 12-25 31 0 29 2 37 7 25 6 35-4.75 16-4.75 16-21.38-60.92-12.82-89S129 81 135.5 78.5z" fill="#fff" fill-opacity=".4"/><path d="M177 71s-73-2-82 51c0 0-4.5 17.5 1.5 40.5s14 50 14 50 6 10 46 6 75-25 75-25-10-100-16-108-15-15-38.5-14.5z" stroke="#000" stroke-miterlimit="10" fill="none"/><path d="M177 70s-73-2-82 51c0 0-4.5 17.5 1.5 40.5s14 50 14 50 6 10 46 6 75-25 75-25-10-100-16-108-15-15-38.5-14.5z" stroke="#000" stroke-miterlimit="10" fill="none"/><path d="M205.5 86.5s-27 2-29 28 9 73 9 73l5.38 23.67 40.62-17.67s-8-94-15-106c-.02.01-8-1-11-1z" fill-opacity=".2" stroke-width=".75" stroke="#000" stroke-miterlimit="10"/><circle cx="147.5" cy="214.5" r="1.5"/><circle cx="165.5" cy="211.5" r="1.5"/><circle cx="183.5" cy="206.5" r="1.5"/><circle cx="196.5" cy="202.5" r="1.5"/><circle cx="208.5" cy="198.5" r="1.5"/><circle cx="219.5" cy="194.5" r="1.5"/><circle cx="228.5" cy="190.5" r="1.5"/><circle cx="130.5" cy="214.5" r="1.5"/><circle cx="115.5" cy="210.5" r="1.5"/>
    <g fill="currentColor"><path d="M144.5 141.5s5 9 9 7 13-9 13-9v-9s-2-1-7 0-14 5-14 5-3 2-1 6zM118 141l-5 10s-7.5-2.5-10.5-4.5-4-3-4-6l1-3a13.6 13.6 0 0 1 7 0c4 1 11 2 11 2s1 0 .5 1.5z"/></g><path d="M144.5 141.5s5 9 9 7 13-9 13-9v-9s-2-1-7 0-14 5-14 5-3 2-1 6z" stroke="#000" stroke-linecap="round" stroke-linejoin="round" fill-opacity=".4"/><path d="M144.5 139.5s2 2 6 1 10-6 12-7a18.66 18.66 0 0 0 4-3s-3.22-1-9.11.52a67.92 67.92 0 0 0-11.89 4.48s-3 2-1 4z" fill="#461917" stroke-width=".5" stroke="#000" stroke-linecap="round" stroke-linejoin="round"/><path d="M118 141l-5 10s-7.5-2.5-10.5-4.5-4-3-4-6l1-3a13.6 13.6 0 0 1 7 0 37.46 37.46 0 0 0 8 1s4 1 3.5 2.5z" stroke="#000" stroke-linecap="round" stroke-linejoin="round" fill-opacity=".4"/><path d="M100.5 139.5l6 3c2 1 9.7 2.6 11.35-1.2s-11.6-4.69-16-4.24c0 0-3-.17-2.67.94a2.3 2.3 0 0 0 1.32 1.5z" fill="#461917" stroke-width=".5" stroke="#000" stroke-linecap="round" stroke-linejoin="round"/>
    <path d="M148 175s-6.5.5-12.5 1.5a83.3 83.3 0 0 1-12 1v14c0 2 3 13 13 12s13-7 13-11-1-17-1-17 0-1-.5-.5z" fill="currentColor"/><path d="M148 175s-6.5.5-12.5 1.5a83.3 83.3 0 0 1-12 1v14c0 2 3 13 13 12s13-7 13-11-1-17-1-17 0-1-.5-.5z" stroke="#000" stroke-miterlimit="10" fill-opacity=".4"/><path d="M129.59 177.21L130 191s1 7 7 8 12-.83 12.5-4.92-1-19.58-1-19.58l-10.88 1.67c-2.12.33-8.03 1.04-8.03 1.04z" fill="#f6921e" stroke="#000" stroke-miterlimit="10"/><path d="M137.25 176.19l.22 22.88s-7-.57-7.39-7.64c-.58-4.93-.58-13.93-.58-13.93z" fill="#f9ec31" stroke-width=".75" stroke="#000" stroke-miterlimit="10"/><path d="M129.59 177.21L130 191s1 7 7 8 12-.83 12.5-4.92-1-19.58-1-19.58l-10.88 1.67c-2.12.33-8.03 1.04-8.03 1.04z" fill="none" stroke="#000" stroke-miterlimit="10"/>
    <path d="M136.5 83.5c-3.39.31-11 2-13 4a4.38 4.38 0 0 0-1 3v5a18.26 18.26 0 0 0 13 3c8-1 16-6 16-6s0-6-1-7-1-2-5-2-6.76-.2-9 0z" fill="currentColor"/><path d="M125.7 86.16s-2.2 1.34-1.2 3.34 7 3 12 2a53.37 53.37 0 0 0 11-4s3.57-2.09 1.29-3.54-16.9-1.13-23.09 2.2z" stroke-width=".75" stroke="#000" stroke-linecap="round" stroke-linejoin="round" fill-opacity=".2" fill="#fff"/><path d="M125.7 86.16s-2.2 1.34-1.2 3.34 7 3 12 2a55.23 55.23 0 0 0 8.61-2.5c-1.11-2-8.42-5.89-8.42-5.89s-7.22 1.02-10.99 3.05z" fill-opacity=".2" fill="#fff"/><path d="M136.5 83.5c-3.39.31-11 2-13 4a4.38 4.38 0 0 0-1 3v5a18.26 18.26 0 0 0 13 3c8-1 16-6 16-6s0-6-1-7-1-2-5-2-6.76-.2-9 0z" fill="none" stroke="#000" stroke-linecap="round" stroke-linejoin="round"/><path d="M134.5 73.5s-5 1-5 6 1 7 1 7a18.58 18.58 0 0 0 8 0c4-1 5-3 5-3s-1-10-9-10z" fill="#ec1c24" stroke="#000" stroke-linecap="round" stroke-linejoin="round"/><path d="M139.5 75.5s2 3 1 6-6 5-6 5 8-1 9-3-3-7-4-8z" fill-opacity=".1"/><path d="M134.5 73.5s-5 1-5 6 1 7 1 7a18.58 18.58 0 0 0 8 0c4-1 5-3 5-3s-1-10-9-10z" fill="none" stroke="#000" stroke-linecap="round" stroke-linejoin="round"/><path d="M144.5 88.5c1 1 0 7.3 0 7.3l7-3.3s0-6.14-1.5-7.57c-2 3.07-3 3.07-5.5 3.57z" fill-opacity=".2"/><path d="M133.5 75.5a1 1 0 0 1 1 1c0 1 0 6-2 6s-3 0-2-4 3-3 3-3z" fill-opacity=".4" fill="#fff"/>
</g>
</svg>
