
<svg viewBox="0 0 300 300" width="60" height="60" xmlns="http://www.w3.org/2000/svg" xmlns:xlink="http://www.w3.org/2000/xlink">                
<g style="color:#69B49B">
    <rect fill="#37509B" x="0" y="0" width="320" height="320"></rect>
    <path d="M160.5 246.5s-14-3-27 13-22 45-22 45h108s-20-35-25-40-18-17-34-18z" fill="currentColor"/><path d="M121.5 303.5s5-24 10-33 3.28-8.07 7.64-8.53 15.13-1.22 23.75 2.66 8.18 3.25 8.18 3.25l13.12-12.15s-12.68-9.66-26.18-9.44-23.5 12.22-26.5 15.22-14.17 23.45-19.09 40.22z" fill-opacity=".2" fill="#fff"/><path d="M145.5 261.5s28 1 38 17 13 26 13 26h-86s13.77-34.15 18.39-38.57 15.61-4.43 16.61-4.43z" stroke="#000" stroke-miterlimit="10" fill="none"/><path d="M121.5 303.5s5-24 10-33 3.28-8.07 7.64-8.53c22.36-1.47 31.93 5.9 31.93 5.9l13.12-12.15s-12.68-9.66-26.18-9.44-23.5 12.22-26.5 15.22-14.17 23.45-19.09 40.22z" fill-opacity=".2" fill="#fff"/><path d="M160.5 246.5s-14-3-27 13-22 45-22 45h108s-20-35-25-40-18-17-34-18z" stroke="#000" stroke-miterlimit="10" fill="none"/><path d="M149 192s1 62 2 64a11.16 11.16 0 0 0 9.06 3.21c5.44-.71 6.44-2.71 6.94-5.21 0 0-2.5-48.5-2.5-62.5z" fill="#6d6e70" stroke="#000" stroke-miterlimit="10"/><path d="M159.5 191.5s3 36 3 40 1 27 1 27l3-1-2-66z" opacity=".2"/><path d="M164.5 203.5a8.76 8.76 0 0 1-6 2c-4 0-8 0-9-1M165.5 214.5a12.68 12.68 0 0 1-6 2c-3 0-7 .25-10-1.37M165.8 225.5a10.11 10.11 0 0 1-6.3 2c-4 0-7.65-.2-9.82-2.1M166 234.5s-.5 3-5.5 3a64.39 64.39 0 0 1-10.3-1M166.5 245.5s-1 3-6 3a21.51 21.51 0 0 1-10-2" stroke="#000" stroke-miterlimit="10" fill="none"/><path d="M195.58 301.91H218s-15-26.13-19.27-31.77-12.23-13.64-14.23-14.64l-13 12s8 4.69 10.48 8.84 10.68 16.98 13.6 25.57z" fill-opacity=".2"/><path d="M193.5 272.5a6.85 6.85 0 0 0-2 8c2 5 8 6 8 6s7-6 15-2 9 7 9 15 14 3 14 3l2-2s4-21-19-31c0 0-11-4-27 3z" fill="#6d6e70" stroke="#000" stroke-miterlimit="10"/><path d="M196.5 284.5a25.68 25.68 0 0 1 18-5c11 1 16 9 18 17s-4 10-4 10l-5-7s.05-13.88-10-15.44-14 2.44-14 2.44-4 0-3-2z" fill-opacity=".2"/><path d="M206 268.82a2.89 2.89 0 0 0-1.5 2.68c0 2 .1 8.87 7 11.94M229.44 274.89s-3.94-1.39-5.94 1.61-3.62 9.25-2.81 12.13M223.56 300.34c-.06.16.94-2.84 5.94-2.84a21.66 21.66 0 0 1 10.09 2.37" stroke="#000" stroke-miterlimit="10" fill="none"/><path d="M127.07 268.36S108.5 263.5 98.5 279.5c0 0-5 9 1 20s7 4 7 4l7-5.25s-6-7.75-2-13.75c0 0 2.75-4.25 8.88-3.12z" fill="#6d6e70" stroke="#000" stroke-miterlimit="10"/><path d="M119.5 281.5s2-7 1-10a5.45 5.45 0 0 0-3.56-3.62M111.5 284.5a14.54 14.54 0 0 0-8-5c-5-1-5.44.94-5.44.94M111 293.56a10.89 10.89 0 0 0-7.48.94c-4 2-4 5-4 5" stroke="#000" stroke-miterlimit="10" fill="none"/><path d="M123.53 274.89s-7-2.39-13 .61-9 7-9 12 5 12 7 14 4.83-3.86 4.83-3.86-3.83-5.14-2.83-11.14c0 0 1-6 10-5z" fill-opacity=".2"/><circle cx="145" cy="266" r="1.5"/><circle cx="160.5" cy="268.5" r="1.5"/><circle cx="173.5" cy="274.5" r="1.5"/><circle cx="182.5" cy="285.5" r="1.5"/><circle cx="188.5" cy="296.5" r="1.5"/><circle cx="133.5" cy="266.5" r="1.5"/>
    <path d="M144.5 87.5s-51 3-53 55c0 0 0 27 5 42s10 38 10 38l16 16 1 5s13.5-1.5 19-1 14 2 14 2 6-13 19-19 18-8 18-8-4-35-4-52 12-77-45-78z" fill="currentColor"/><path d="M115.14 97.69s6.36 5.81-2.64 14.81-16 23-13 44 10 40 10 50-.67 18.19-.67 18.19l-2.33-2.19s-15-45-15-76.5 23.64-48.31 23.64-48.31z" fill="#fff" fill-opacity=".4"/><path d="M144.5 87.5s-51 3-53 55c0 0 0 27 5 42s10 38 10 38l16 16 1 5s9-1 15-1 19 1 19 1a38.06 38.06 0 0 1 18-18c13-6 18-8 18-8s-4-35-4-52 12-77-45-78z" stroke-linecap="round" stroke-linejoin="round" stroke="#000" fill="none"/><path d="M144.5 86.5s-51 3-53 55c0 0 0 27 5 42s10 38 10 38l16 16 1 5s9-1 15-1 19 1 19 1a38.06 38.06 0 0 1 18-18c13-6 18-8 18-8s-4-35-4-52 12-77-45-78z" stroke-miterlimit="10" stroke="#000" fill="none"/><path d="M158.5 92.5s20 15 18 32-8 28-12 29a19.27 19.27 0 0 1 8 16c0 11 1 50 1 50l.34 6.83 19.66-8.83s-3.77-39-3.38-63.49 1.38-55.13-31.62-64.82c0 0-3 1.31 0 3.31z" fill-opacity=".2"/><path d="M124.5 211.5l37-1 4.76 21.18s-8.76 8.82-8.76 11.82c-2 1-10-1-18-1a147.84 147.84 0 0 0-16 1s-5-19 1-32z" stroke-linecap="round" stroke-linejoin="round" stroke="#000" fill="none"/><path d="M159.5 212.5a19.89 19.89 0 0 0-4 14c1 8 2 17 2 17l9-12-5-21z" stroke-width=".75" fill-opacity=".2" stroke-linecap="round" stroke-linejoin="round" stroke="#000"/>
    <g fill="currentColor"><path d="M110.5 122.5c-4 0-17 2-17 17s10 17 17 17 15-5 15-18-11-16-15-16z"/><path d="M153.5 121.5c-4 0-17.5 2.5-17.5 17.5s10.5 16.5 17.5 16.5 16-5 16-18c-2.5-15.5-12-16-16-16z"/></g><path d="M110.5 126.5s-13 0-13 12 10 13 13 13 12-2 12-14.52c0 .02-1-9.48-12-10.48z" stroke-width=".5" stroke="#000" stroke-linecap="round" stroke-linejoin="round" fill-opacity=".2"/><path d="M154.5 121.5s-20 0-19 18 19 16 19 16 16-2 15-17-11-17-15-17zM110.5 122.5c-4 0-17 2-17 17s10 17 17 17 15-5 15-18-11-16-15-16z" fill-opacity=".4" stroke="#000" stroke-linecap="round" stroke-linejoin="round"/><path d="M140.1 137.73s-2 13.2 12.18 13.2 14.22-10.15 14.22-13.2-3-12.18-12.18-12.18-14.22 7.1-14.22 12.18z" fill-opacity=".4" stroke-width=".5" stroke="#000" stroke-linecap="round" stroke-linejoin="round"/><path d="M109 127s-9 1-9 9 2.5 12.5 10.5 12.5 12-5 12-10-5-12-13.5-11.5zM154 126s-10.5.52-11 9.4 4 13.6 11 13.6 12-6.26 12-11.49-4.5-12-12-11.51z" fill="#461917" stroke-width=".5" stroke="#000" stroke-linecap="round" stroke-linejoin="round"/><path d="M110.26 134.06a.92.92 0 0 0-.24.05c-.36.13-1 .61-1 2.31 0 2.36 0 3.54 1.26 3.54s2.51 0 2.51-3.54c-.02-2.36-1.67-2.56-2.53-2.36zM154.26 134.06a.92.92 0 0 0-.24.05c-.36.13-1 .61-1 2.31 0 2.36 0 3.54 1.26 3.54s2.51 0 2.51-3.54c-.02-2.36-1.67-2.56-2.53-2.36z" fill="#faaf40"/>
    <path d="M109.5 197.5c0 4 1 5 1 5h34c10 0 21-1 21-1v-23l-1-4h-2c-2 0-54.5.5-54.5.5v11z" fill="currentColor"/><path d="M163.5 174.5v25s-52 1.5-53.75 1l.61 1.79 28.9.21s19.65-.79 21.7-.65A9 9 0 0 0 165 201l.41-22.84S164 174 163.5 174.5z" opacity=".4"/><path d="M109.5 197.5c0 4 1 5 1 5h34c10 0 21-1 21-1v-23l-1-4h-2c-2 0-54.5.5-54.5.5v11z" stroke-miterlimit="10" stroke="#000" fill="none"/><path d="M113.5 200.5h27c10 0 23-1 23-1v-24" stroke-width=".5" stroke-linecap="round" stroke-linejoin="round" stroke="#000" fill="none"/><path stroke-width=".5" stroke-miterlimit="10" stroke="#000" fill="none" d="M163.5 199.5l1.5 1.5"/><path d="M162 177v12" stroke-width=".5" stroke-linecap="round" stroke-linejoin="round" stroke="#000" fill="none"/><path d="M112.5 177.5h27c9 0 20-1 20-1v20l-54 1a34.21 34.21 0 0 1 2-11 44.27 44.27 0 0 1 5-9z" fill="#f6921e" stroke-width="1.2" stroke-linecap="round" stroke-linejoin="round" stroke="#000"/><path d="M159 176.5s-3 7.5-4 11.5a87 87 0 0 0-1.59 8.61l-12.91.19s-1-2.3 1-7.3 5-12 5-12 11-.5 12.5-1zM128.5 196.89h-11a19.28 19.28 0 0 1 2-11.22c3-6.12 3.75-8.16 3.75-8.16h11.56s-1.31 3.06-2.31 6.12-4 6.12-4 10.2z" stroke-width=".75" fill="#f9ec31" stroke-miterlimit="10" stroke="#000"/><path d="M135.13 177.5h11.37l-5.43 13.25a8.08 8.08 0 0 0-.82 4c.25 1.89 0 2.25 0 2.25H128.5a23.82 23.82 0 0 1 .92-7.35c1.08-3.08 2.1-3 3.59-7.58s2.12-4.57 2.12-4.57z" fill="#f05a27" stroke-width=".75" stroke-linecap="round" stroke-linejoin="round" stroke="#000"/>
    <g fill="currentColor"><path d="M128.5 86.5a3.49 3.49 0 0 0-1 2v3s3 3 9 3 12-4 12-4v-5s-1-1-6-1-11 0-14 2zM173.5 21.5l-35 17s-.57 2.41.22 3.71l.78 1.29 37-18s2-5-3-4zM96.5 58.5s-2 2-1 3 3 0 3 0l33.66-15.9a6.44 6.44 0 0 1-.66-3.1z"/><path d="M134.5 47.5l-1 37a4.33 4.33 0 0 0 4 2 7.65 7.65 0 0 0 5-2l-2-40s-5 0-6 3z"/><path d="M136.5 38.5l-4 2a3.76 3.76 0 0 0-.81 1.55 5.34 5.34 0 0 0-.19 1.45c0 2 2 4 3 4 0 0-.17-.54 1.42-1.77a8.26 8.26 0 0 1 4.32-1.22h.26s-2-2-2-3v-3z"/></g><path d="M134.5 47.5l-1 37a4.33 4.33 0 0 0 4 2 7.65 7.65 0 0 0 5-2l-2-40s-5 0-6 3z" stroke-linejoin="round" stroke-linecap="round" stroke="#000" fill="none"/><path d="M128.5 87.5s0 2 6 2 11-1 13-3c.48-.55.5-1.75-2.25-1.87h-3.15a6.77 6.77 0 0 1-4.1 1.8c-3.5.1-4.31-1.6-4.31-1.6s-5.19.67-5.19 2.67z" stroke-width=".75" fill-opacity=".2" fill="#fff" stroke-linejoin="round" stroke-linecap="round" stroke="#000"/><path d="M128.5 86.5a3.49 3.49 0 0 0-1 2v3s3 3 9 3 12-4 12-4v-5s-.8-1-5.8-1a7.15 7.15 0 0 1-4.57 2c-1.63 0-4.17 0-4.63-1.72a10.71 10.71 0 0 0-5 1.72z" stroke-linejoin="round" stroke-linecap="round" stroke="#000" fill="none"/><path d="M128.5 86.5a3.49 3.49 0 0 0-1 2v3s3 3 9 3 12-4 12-4v-5c-.63-.65-1.9-1.15-6-1a6.16 6.16 0 0 1-4.17 1.8c-3.83.2-4.41-1.46-4.41-1.46s-4.42.66-5.42 1.66z" stroke-width=".75" stroke-linejoin="round" stroke-linecap="round" stroke="#000" fill="none"/><path d="M136.5 38.5l-4 2a3.76 3.76 0 0 0-.81 1.55 5.34 5.34 0 0 0-.19 1.45c0 2 2 4 3 4 0 0-.17-.54 1.42-1.77a8.26 8.26 0 0 1 4.32-1.22h.26s-2-2-2-3v-3z" stroke-linejoin="round" stroke-linecap="round" stroke="#000" fill="none"/><path d="M96.5 58.5s-2 2-1 3 3 0 3 0l33.8-15.6a7.45 7.45 0 0 1-.8-3.4zM173.5 21.5l-35 17s-.57 2.41.22 3.71l.78 1.29 37-18c1.02.02 2.99-4.97-3-4z" fill-opacity=".2" fill="#fff" stroke-linejoin="round" stroke-linecap="round" stroke="#000"/><circle cx="175.5" cy="23.5" r="2" fill-opacity=".2" stroke-linejoin="round" stroke-linecap="round" stroke="#000"/><path d="M137.5 5.5s-2 0 1 2 32 15 32 15l2-1-33-15zM56.72 44a1.7 1.7 0 0 0 1.2 1.19l38.37 13.64 1.89-1.2L58.81 44.1s-2.37-1.1-2.09-.1zM114.5 17.5s-2 0 1 2 32 15 32 15l2-1-33-15zM102 26.53s-2 .12 1.12 1.94S133 40.2 133 40.2l1.91-.77-30.83-12zM177.5 24.19L212 41c1 1 .39 1.37-2 1l-33.5-16.5s.5-.12 1-1.31zM154.91 35.41l35.6 14.34s1.49 1.25-1.93 1.13L154 36.79zM102.89 59.02l31.45 9.67-.69 1.29-32.65-10 1.89-.96zM142 42.54l35.55 13c2.4.9.47 2.47-2 1.19L140.2 43.79z"/><path d="M136 38.75a5.37 5.37 0 0 0-.5 2.75c0 2 2.22 3.37 2.22 3.37l1.8 40.84 4.48 2.63v4l4.46-1.89v-5a35.36 35.36 0 0 0-6-1l-2-40a3.7 3.7 0 0 1-2-3v-3z" fill-opacity=".2"/><path d="M119.5 47.5l-32-12s-3-1-4 1 0 3 2 4 27 10 27 10M116.05 49.09l-32.1-11.58" stroke-width="1.5" stroke-linejoin="round" stroke-linecap="round" stroke="#000" fill="none"/><path stroke-width="1.5" stroke-linejoin="round" stroke="#000" fill="none" d="M125.5 49.2l8.86 3.37"/><path stroke-miterlimit="10" stroke-width="1.5" stroke="#000" fill="none" d="M117.9 52.66L134 59M121.42 50.93l12.85 4.9M141 54.57L158 62s4 2 3 4-5 1-6 1-13.65-5.5-13.65-5.5"/><path stroke-width="1.5" stroke-linejoin="round" stroke="#000" fill="none" d="M141.18 58.12l19.32 8.38"/>
</g>
</svg>
