
<svg viewBox="0 0 300 300" width="60" height="60" xmlns="http://www.w3.org/2000/svg" xmlns:xlink="http://www.w3.org/2000/xlink">                
<g style="color:#1E8205">
    <rect fill="#051E1E" x="0" y="0" width="320" height="320"></rect>
    <g fill="currentColor"><path d="M158.5 234.5s-59 1-84 42 23 42 23 42l132-13s-5-16 5-27 19-6 19-6-34-41-95-38z"/><path d="M277.5 301.5c-.33-7.3-4.07-15.56-12-25 0 0-11.5-7.5-25.28-2.69-7.72 4.69-13.72 11.69-11.72 28.69zM74.5 276.5a29.05 29.05 0 0 0-26 16c-9 17 10 17 10 17l8.79-9.5s-2.79-6.5 7.21-23.5z"/></g><path d="M158.5 234.5s-59 1-84 42 23 42 23 42l132-13s-5-16 5-27 19-7 19-7-34-40-95-37z" stroke-linecap="round" stroke-linejoin="round" stroke="#000" fill="none"/><path d="M215 245s6.5 1.46-.5 16.46-13 26-10 41 24.32 0 24.32 0-3.6-15.79 7-25.4c12.91-11.65 19.71-3.56 16.64-5.6.04.04-16.97-17.88-37.46-26.46z" fill-opacity=".2"/><path d="M158.5 234.5s-59 1-84 42 23 42 23 42l132-13s-5-16 5-27c7-9 19-7 19-7s-34-40-95-37z" stroke-linecap="round" stroke-linejoin="round" stroke="#000" fill="none"/><path d="M62.5 280.5s5 0 0 9-8 11-9 14-6.5-2.33-6.5-2.33-3.23-4.81 5.63-14.74c0 0 4.87-5.93 9.87-5.93z" fill-opacity=".4" fill="#fff"/><path d="M74.5 276.5a29.05 29.05 0 0 0-26 16c-9 17 10 17 10 17l8.79-9.5s-2.79-6.5 7.21-23.5z" stroke-miterlimit="10" stroke="#000" fill="none"/><path d="M77.5 301.5s0-19 13-30 16-5 15-2-14 24-14 32-14 0-14 0z" fill-opacity=".4" fill="#fff"/><path d="M277.5 301.5s-5-39-37.28-27.69c-7.72 4.69-13.72 11.69-11.72 28.69z" stroke-miterlimit="10" stroke="#000" fill="none"/><path d="M261.5 304.5s4-7 3-15-8.36-16.57-8.36-16.57a25.86 25.86 0 0 1 18.77 16.29 27.17 27.17 0 0 1 2.58 15.29z" fill-opacity=".2"/><path d="M103.5 303.5s2-30 41-29 41 29 41 29h-11.25c-.75-2-12.12-18.58-30.75-18-15.88-.37-26.93 4.64-30.5 18z" stroke-miterlimit="10" fill="#fff" fill-opacity=".2" stroke="#000"/><path d="M113.5 301.5s3-16 28-16 32 17 32 17z" stroke-miterlimit="10" fill-opacity=".2" stroke="#000"/><path d="M118.5 300.5s9-12 24-11 24 12 24 12z" fill="#f9ec31" stroke-miterlimit="10" stroke="#000"/><circle cx="125.5" cy="283.5" r="1"/><circle cx="113" cy="291" r="1"/><circle cx="148" cy="280" r="1"/><circle cx="170" cy="289" r="1"/><path d="M147 200s0 44 1 45a14.41 14.41 0 0 0 14 4c8-2 7-7 7-7a144.32 144.32 0 0 1-2.5-24.5v-19s-18 0-19.5 1.5z" fill="#6d6e70" stroke-miterlimit="10" stroke="#000"/><path d="M159.5 202.5s1 17 2 23 2 22.83-2 23.91c0 0 9.62-.9 9.31-8.41s-2.43-19.17-2.37-30.34.06-12.17.06-12.17l-7 .11z" fill-opacity=".2"/><path d="M147 233.5s1.08 3 5.4 3 12.83-1.33 15-4.66M147.5 219.32s1 2.68 5 2.68 11.89-1.18 13.94-4.16M147.5 208.07s1 1.93 5 1.93 11.89-.85 13.94-3" stroke-miterlimit="10" stroke="#000" fill="none"/>
    <path d="M156 83s-55 5-66 53 9.5 66.5 9.5 66.5 9 8 12 8 2-2 1-4a7.47 7.47 0 0 0-3-3s4 1 5 10 1 32 1 38v12s2 8 17 8 30-7 30-7-4-34-2-41 9-20 15-26 3-1 0 2a50.18 50.18 0 0 0-6 8s17-7 23-14 15-10 16-33 6-79-52.5-77.5z" fill="currentColor"/><path d="M156 83s-55 5-66 53 9.5 66.5 9.5 66.5 9 8 12 8 2-2 1-4a7.47 7.47 0 0 0-3-3s4 1 5 10 1 32 1 38v12s2 8 17 8 30-7 30-7-4-34-2-41 9-20 15-26 3-1 0 2a50.18 50.18 0 0 0-6 8s17-7 23-14 15-10 16-33 6-79-52.5-77.5z" fill="none" stroke="#000" stroke-linecap="round" stroke-linejoin="round"/><path d="M156 82s-55 5-66 53 9.5 66.5 9.5 66.5 9 8 12 8 2-2 1-4a7.47 7.47 0 0 0-3-3s4 1 5 10 1 32 1 38v12s2 8 17 8 30-7 30-7-4-34-2-41 9-20 15-26 3-1 0 2a50.18 50.18 0 0 0-6 8s17-7 23-14 15-10 16-33 6-79-52.5-77.5z" fill="none" stroke="#000" stroke-linecap="round" stroke-linejoin="round"/><path d="M181.5 93.5s18 16 16 44-6 41-28 54c0 0-16 3-19 28s0 49.27 0 49.27l12-4.27s-6.87-36.09.07-46.54 7.21-11.15 17.07-15.3 30.94-21.59 29.4-50.87-.09-56-35.32-67.16l-3.94-.77s-1.28.64 11.72 9.64z" fill-opacity=".2"/><path d="M110.5 117.5s-7 1-10 11-11 25-8 35 7 10 9 5 1-17 5-28 10-21 4-23zM122.5 99.5s-9 6-9 9 0 4 5 4 13-4 13-9-3-7-9-4z" fill="#fff" fill-opacity=".4"/>
    <path d="M129.5 123.5s-30 3-31 15 8 13 15 14 20-2 26-3 25 1 27-13-17-14-17-14z" fill="currentColor"/><path d="M116.92 125.8s-15.42 2.7-16.42 12.7 15.5 13 24.25 10.5a97.37 97.37 0 0 1 25.25-3.56c6.5.06 16.78-3.69 16.64-11.31s-9.14-11.63-17.14-11.63-21.12 1.13-21.12 1.13z" fill-opacity=".4" fill="#fff"/><path d="M130.5 123.5l-8 25.5c1.6-.06 5.38-.65 9-1.2l7-24.8a47.26 47.26 0 0 1-8 .5zM120.77 124.91L113 150h5l7.41-25.94-4.64.85z" fill-opacity=".4" fill="#fff"/><path d="M129.5 123.5s-30 3-31 15 8 13 15 14 20-2 26-3 25 1 27-13-17-14-17-14z" stroke="#000" stroke-linecap="round" stroke-linejoin="round" fill="none"/><path d="M106.61 129.46s-6.11 3-6.11 9 5 13 20 11 23-4 28-4 17.29-2.5 18.15-10.25c0 0 .3 10.92-14.42 13.09s-16.25 1.2-21 2.68-28.06 4.23-32.4-7.15c.01.04-3.12-9.4 7.78-14.37z" stroke-width=".75" stroke="#000" stroke-linecap="round" stroke-linejoin="round" fill-opacity=".4"/>
    <path d="M109.5 197.5c0 4 1 5 1 5h34c10 0 21-1 21-1v-23l-1-4h-2c-2 0-54.5.5-54.5.5v11z" fill="currentColor"/><path d="M163.5 174.5v25s-52 1.5-53.75 1l.61 1.79 28.9.21s19.65-.79 21.7-.65A9 9 0 0 0 165 201l.41-22.84S164 174 163.5 174.5z" opacity=".4"/><path d="M109.5 197.5c0 4 1 5 1 5h34c10 0 21-1 21-1v-23l-1-4h-2c-2 0-54.5.5-54.5.5v11z" stroke-miterlimit="10" stroke="#000" fill="none"/><path d="M113.5 200.5h27c10 0 23-1 23-1v-24" stroke-width=".5" stroke-linecap="round" stroke-linejoin="round" stroke="#000" fill="none"/><path stroke-width=".5" stroke-miterlimit="10" stroke="#000" fill="none" d="M163.5 199.5l1.5 1.5"/><path d="M162 177v12" stroke-width=".5" stroke-linecap="round" stroke-linejoin="round" stroke="#000" fill="none"/><path d="M112.5 177.5h27c9 0 20-1 20-1v20l-54 1a34.21 34.21 0 0 1 2-11 44.27 44.27 0 0 1 5-9z" fill="#f6921e" stroke-width="1.2" stroke-linecap="round" stroke-linejoin="round" stroke="#000"/><path d="M159 176.5s-3 7.5-4 11.5a87 87 0 0 0-1.59 8.61l-12.91.19s-1-2.3 1-7.3 5-12 5-12 11-.5 12.5-1zM128.5 196.89h-11a19.28 19.28 0 0 1 2-11.22c3-6.12 3.75-8.16 3.75-8.16h11.56s-1.31 3.06-2.31 6.12-4 6.12-4 10.2z" stroke-width=".75" fill="#f9ec31" stroke-miterlimit="10" stroke="#000"/><path d="M135.13 177.5h11.37l-5.43 13.25a8.08 8.08 0 0 0-.82 4c.25 1.89 0 2.25 0 2.25H128.5a23.82 23.82 0 0 1 .92-7.35c1.08-3.08 2.1-3 3.59-7.58s2.12-4.57 2.12-4.57z" fill="#f05a27" stroke-width=".75" stroke-linecap="round" stroke-linejoin="round" stroke="#000"/>
    <path d="M103.5 165.5s11-4 15-6a59.46 59.46 0 0 1 7-3s5 0 6 3 0 5-1 6-23 8-23 8a4.45 4.45 0 0 1-5-2c-3-5 1-6 1-6z" fill="currentColor"/><path d="M102 167c-1.07 1.3 1.29 6.38 2.64 6.19s6.07.81 4.36-4.12c-1.82-4.07-5.95-3.35-7-2.07z" fill="#fff" fill-opacity=".2"/><path d="M103.5 165.5s11-4 15-6a59.46 59.46 0 0 1 7-3s5 0 6 3 0 5-1 6-23 8-23 8a4.45 4.45 0 0 1-5-2c-3-5 1-6 1-6z" fill="none" stroke="#000" stroke-linecap="round" stroke-linejoin="round"/><path d="M106.5 173.5c3-1 3-3 2-5-3-4-6-2-6-2.24M109.1 163.4s4.4.1 5.4 3.1a5.22 5.22 0 0 1-.78 5" stroke-width=".75" fill="none" stroke="#000" stroke-linecap="round" stroke-linejoin="round"/><circle cx="128" cy="161" r="1"/>
</g>
</svg>
