
<svg viewBox="0 0 300 300" width="60" height="60" xmlns="http://www.w3.org/2000/svg" xmlns:xlink="http://www.w3.org/2000/xlink">                
<g style="color:#505037">
    <rect fill="#699BCD" x="0" y="0" width="320" height="320"></rect>
    <path d="M148.46 242.82s-35 5.68-33 23.68c0 0-1 7 9 20s13 20 13 20l51-2s1-7 9-18 11-13 11-24-13.09-25.36-60-19.68" fill="currentColor"/><path d="M148.46 242.82s-35 5.68-33 23.68c0 0-1 7 9 20s13 20 13 20l51-2s1-7 9-18 11-13 11-24-13.09-25.36-60-19.68" stroke="#000" stroke-miterlimit="10" fill="none"/><path d="M131.83 247.83s-6.33 4.67-7.33 12.67c0 0-3 7 4 14s13 18 14 25-7.56 2.2-7.56 2.2-5.72-8.89-11.08-16-10.81-14.18-7.58-25.17c0-.04 1.89-6.36 15.55-12.7z" fill="#fff" fill-opacity=".4"/><circle cx="155.5" cy="267.5" r="1"/><circle cx="144" cy="268" r="1"/><circle cx="132" cy="270" r="1"/><circle cx="122" cy="274" r="1"/><circle cx="170" cy="267" r="1"/><circle cx="183" cy="270" r="1"/><circle cx="194" cy="275" r="1"/><path d="M193.33 245.17s-1.83 5.33 1.17 8.33 4 4 2 8a21.05 21.05 0 0 0-3.72 4c-1.28 2 .72 4-1.28 9s-15 28-15 28l12.74-.81s-.74-2.19 8.26-15.19 13-17.33 10-29.17c0 0-3.33-7.5-14.17-12.16z" fill-opacity=".2"/><path d="M116.5 272.83s-2-6.33 6-8.33 19-5 40-5 41 6 40 18a10 10 0 0 1-2.17 5" stroke="#000" stroke-miterlimit="10" fill="none"/><path d="M166.5 205.5h-14a12.13 12.13 0 0 0-5 1l1 38s0 11 10 11 11-9 11-9-3-17-3-27z" fill="#6d6e70" stroke="#000" stroke-miterlimit="10"/><path d="M166 212.5s-2.06 3-9.25 3-9.25-1.5-9.25-1.5M166 224.5s-2.06 3-9.25 3-9.25-1.5-9.25-1.5M167 238.5s-2.06 3-9.25 3-9.25-1.5-9.25-1.5" stroke="#000" stroke-miterlimit="10" fill="none"/><path d="M159.17 205.5s-.67 9 1.33 15 4 15 3 21-1 12.74-3 13.87 8-.87 9-8.87a168.89 168.89 0 0 1-3-28.92V205.5z" fill-opacity=".2"/><path d="M197.5 286.5s12 3 14 13 16 4 16 4 4-1-2-15a31.19 31.19 0 0 0-18.31-17.5 29.16 29.16 0 0 1-5.19 9.56 32.56 32.56 0 0 0-4.5 5.94z" fill="#6d6e70" stroke="#000" stroke-miterlimit="10"/><path d="M219.5 279.5s-11.86 4.53-11.93 12.76M228.5 296.5a15.7 15.7 0 0 0-17 4" stroke="#000" stroke-miterlimit="10" fill="none"/><path d="M224 304.64l4.82-4.14s-2.14-16.5-11-23-10.33-6-10.33-6l-3.27 6s18.25 9.27 19.78 27.14z" fill-opacity=".2"/><path d="M117.31 275.57s-13.81 6.93-16.81 25.93 17 0 17 0 1.85-8.67 8.92-12.34c0 0-8.29-10.52-9.11-13.59z" fill="#6d6e70" stroke="#000" stroke-miterlimit="10"/><path d="M109 283s7.48 11.61 11.58 11.55M102 296s6.9 7.76 11.5 6.47" stroke="#000" stroke-miterlimit="10" fill="none"/><path d="M119.5 283.5s-13 7-12 21 10.64-5.12 10.64-5.12 6.36-8.88 8.36-9.88l-5.5-7z" fill-opacity=".2"/>
    <path d="M212.5 90.5s-19.5-20.5-55-12c-31 8-61 14-64 60a122.71 122.71 0 0 0 4 35c5 19 11 42 12 45 0 0 8 9 25 9s56-10 56-10 11-5 12-6-20-60-11-86c0 0 3-7 14-8s14 0 14 0-2-21-7-27z" fill="currentColor"/><path d="M130.5 88.5s-9 6-12 9-16 15-18 28 2 38 4 46 5 21 4 26-2.93 6.66-2.93 6.66-6.07-20.66-8.07-30.66-6-27-1.52-51 34.52-37 34.52-34z" fill="#fff" fill-opacity=".4"/><path d="M212.5 90.5s-18.25-20.21-55-12c-31.25 7-61 14-64 60a122.71 122.71 0 0 0 4 35c5 19 11 42 12 45 0 0 8 9 25 9s56-10 56-10 11-5 12-6-20-60-11-86c0 0 3-7 14-8s14 0 14 0-2-21-7-27z" stroke="#000" stroke-linecap="round" stroke-linejoin="round" fill="none"/><path d="M212.5 89.5s-18-19-55-12c-31.23 7.06-61 14-64 60a122.71 122.71 0 0 0 4 35c5 19 11 42 12 45 0 0 8 9 25 9s56-10 56-10 11-5 12-6-20-60-11-86c0 0 3-7 14-8s14 0 14 0-2-21-7-27z" stroke="#000" stroke-linecap="round" stroke-linejoin="round" fill="none"/><path d="M209.5 92.5s-15 0-21 6-16 16-13 41 12 65 12 65l3 13 12-6s-22.77-76.47-7.39-90.23c0 0 2.39-4.77 24.39-3.77 0 0-.4-21-5.7-25z" fill-opacity=".2" stroke="#000" stroke-linecap="round" stroke-linejoin="round"/><circle cx="211" cy="103" r="1.5"/><circle cx="195.5" cy="207.5" r="1.5"/><circle cx="182.5" cy="213.5" r="1.5"/><circle cx="165.5" cy="217.5" r="1.5"/><circle cx="146.5" cy="220.5" r="1.5"/><circle cx="129.5" cy="220.5" r="1.5"/><circle cx="114.5" cy="216.5" r="1.5"/>
    <path d="M99.5 142.5s0-10 12-14 26-4 26-4 20-1 25 2 5 9 5 11-2 11-19 13-33 3-33 3-16 0-16-11z" fill="currentColor"/><path d="M99.5 142.5s0-10 12-14 26-4 26-4 20-1 25 2 5 9 5 11-2 11-19 13-33 3-33 3-16 0-16-11z" stroke-linecap="round" stroke-linejoin="round" stroke="#000" fill-opacity=".6"/><path d="M107.16 130.47S105 133 105 138s2 9 8 10 20.5-1.5 20.5-1.5 11-2 18-2 15.74-2.78 15.87-5.89-.17-7.11-2.52-10.11-7.12-3.56-10.24-3.78-12.52-.54-14.82-.38-10.17.47-12.23.81-7.31 1.1-7.31 1.1l-7.61 1.87s-4.81 1.32-5.48 2.35z" stroke-width=".5" fill="#461917" stroke-linecap="round" stroke-linejoin="round" stroke="#000"/><path d="M109 135s-1 11 10 10 10-10 10-10 0-6-3-8-2.85-1.25-2.85-1.25-11.28 2.64-12.21 2.94S109 133 109 135z" fill="#f9ec31" stroke-width=".5" stroke-linecap="round" stroke-linejoin="round" stroke="#000"/><path d="M142 125s-3 2-3 7 3.5 10.5 9.5 10.5 12-4 12-10-3.66-7.5-3.66-7.5l-4.78-.47-4.22-.16h-3.44l-1.91.13z" stroke-miterlimit="10" fill="#f9ec31" stroke-width=".5" stroke="#000"/><path d="M119.42 133s-1.17 0-1.17 2.5 1.17 2.5 1.17 2.5a2.51 2.51 0 0 0 0-5zM150.08 130a1.8 1.8 0 0 0-1.82 1.94c-.07 2 .78 3 1.65 3.06s1.78-.94 1.85-2.94a1.8 1.8 0 0 0-1.68-2.06"/><path d="M99.5 142.5s0-10 12-14 26-4 26-4 20-1 25 2 5 9 5 11-2 11-19 13-33 3-33 3-16 0-16-11z" fill="none" stroke-linecap="round" stroke-linejoin="round" stroke="#000"/>
    <path d="M130.5 175.5v15a73.09 73.09 0 0 0 1 13s6 1 6 0-1-28-1-28c-2.32-.12-5.22-.44-6 0z" fill="currentColor"/><path d="M130.5 175.5v15a73.09 73.09 0 0 0 1 13s6 1 6 0-1-28-1-28c-2.32-.12-5.22-.44-6 0z" stroke="#000" stroke-linecap="round" stroke-linejoin="round" fill="none"/><path d="M131.65 203a75.68 75.68 0 0 1-1.4-15.06 102.33 102.33 0 0 1 .48-12.27 3 3 0 0 1 1.25-.25 5.33 5.33 0 0 1 1 .1l.43.2s0 .16-.13.72a138.49 138.49 0 0 0-1 14.06 64.14 64.14 0 0 0 1 10.92z" opacity=".4"/><path d="M132 175.67a5 5 0 0 1 .87.08l.25.11a3.34 3.34 0 0 1-.09.52v.05a139.54 139.54 0 0 0-1 14.06 64.67 64.67 0 0 0 1 10.83l-1.16 1.16a77 77 0 0 1-1.3-14.56 107.4 107.4 0 0 1 .46-12.1 2.85 2.85 0 0 1 1-.17m0-.5a3.13 3.13 0 0 0-1.48.33s-.5 3-.5 12.44a72 72 0 0 0 1.5 15.56l2-2a62.68 62.68 0 0 1-1-11 138 138 0 0 1 1-14c.13-.56.15-.92 0-1l-.5-.23a5.57 5.57 0 0 0-1-.1z"/><path d="M137.19 201.56a5.59 5.59 0 0 0-2.48-.65 3.64 3.64 0 0 0-1.34.25 39.16 39.16 0 0 1-1.12-9c0-4.56 1.26-14.93 1.47-16.62l2.54.17.56 15.47z" fill="#461917"/><path d="M133.94 175.83l2.06.17.56 15.25.35 9.94a5.61 5.61 0 0 0-2.21-.5 4 4 0 0 0-1.17.17 39 39 0 0 1-1-8.64c0-4.37 1.16-14.11 1.44-16.36m-.44-.53s-1.5 11.86-1.5 16.89a38.68 38.68 0 0 0 1.2 9.31 3.33 3.33 0 0 1 1.51-.35 5.56 5.56 0 0 1 2.74.85l-.38-10.8-.57-15.7-3-.2z"/><path d="M137.5 201.5v2h-5.7l1.7-2s1-2 4 0z" fill-opacity=".4" stroke-width=".75" stroke="#000" stroke-linecap="round" stroke-linejoin="round"/>
    <path d="M125.5 157.5s8-4 15-3 20 8 26 5l8-4s-3 13-14 14-29-3-35-2-25 7-30 6-10-1-12-11c0 0-1-3 3 0s11 4 18-1 15-8 21-4z" fill="currentColor"/><path d="M125.5 157.5s8-4 15-3 20 8 26 5l8-4s-3 13-14 14-29-3-35-2-25 7-30 6-10-1-12-11c0 0-1-3 3 0s11 4 18-1 15-8 21-4z" stroke="#000" stroke-linecap="round" stroke-linejoin="round" fill="#fff" fill-opacity=".4"/><ellipse cx="107.5" cy="165.25" rx="1" ry="1.25"/><ellipse cx="99.5" cy="168.25" rx="1" ry="1.25"/><ellipse cx="91.75" cy="168.94" rx=".75" ry=".94"/><ellipse cx="115.5" cy="163.25" rx="1" ry="1.25"/><ellipse cx="134.5" cy="162.25" rx="1" ry="1.25"/><ellipse cx="145.5" cy="163.25" rx="1" ry="1.25"/><ellipse cx="154.5" cy="164.25" rx="1" ry="1.25"/><ellipse cx="161.5" cy="163.25" rx="1" ry="1.25"/><circle cx="125" cy="162" r="2.5" fill="none" stroke-width=".75" stroke="#000" stroke-linecap="round" stroke-linejoin="round"/><circle cx="125" cy="162" r=".5"/>
</g>
</svg>
