
<svg viewBox="0 0 300 300" width="60" height="60" xmlns="http://www.w3.org/2000/svg" xmlns:xlink="http://www.w3.org/2000/xlink">                
<g style="color:#379B1E">
    <rect fill="#5037CD" x="0" y="0" width="320" height="320"></rect>
    <g fill="currentColor"><path d="M106 247.52s-34.47 3-50.47 32c0 0-5 9-6 23h27s.9-29.98 29.47-55z"/><path d="M226.5 236.5s-6-10-26-12-56-2-81 13-43 44-43 65h115s3-31 22-53c0 0 8.88-7.45 14.44-9.22 0 0 .56-.78-1.44-3.78z"/><path d="M286.5 302.5s4-50-16-59-44-8-57 6-22 43-22 53z"/></g><path d="M91.18 264s5.32.48 3.32 9.48-5 7-7 17-2.5 12-2.5 12h-8.5s-.65-16.94 14.68-38.48z" fill="#fff" fill-opacity=".4"/><path d="M286.5 302.5s4-50-16-59-44-8-57 6-22 43-22 53z" stroke-width="1.2" stroke="#000" stroke-miterlimit="10" fill="none"/><path d="M268.5 247.5s-8 8-11 26-2.25 29-2.25 29h31.25s3.84-41.79-12.58-56.9c0 0-2.42-1.1-5.42 1.9z" fill-opacity=".2" stroke="#000" stroke-miterlimit="10"/><path d="M226.5 236.5s-6-10-26-12-56-2-81 13-43 44-43 65h115s3-31 22-53c0 0 8.88-7.45 14.44-9.22 0 0 .56-.78-1.44-3.78z" stroke-width="1.25" stroke="#000" stroke-miterlimit="10" fill="none"/><path d="M218.22 229.55s-18.72.95-31.72 20.95-17 37-17.5 52h22.5c-1.42.12 8.08-36.84 16-45.5 10-15.5 21-16.5 21-16.5s.43-4.9-10.28-10.95z" stroke-width=".75" fill-opacity=".2" stroke="#000" stroke-miterlimit="10"/><path d="M106 247.52s-34.47 3-50.47 32c0 0-5 9-6 23h27s.9-29.98 29.47-55z" stroke="#000" stroke-miterlimit="10" fill="none"/><path d="M80.61 255.48s2.89 2-6.11 12a94 94 0 0 0-17 26c-3 7-1.75 9-1.75 9H49.5s1.23-32.01 31.11-47z" fill="#fff" fill-opacity=".4"/><path d="M106 247.52s-34.47 3-50.47 32c0 0-5 9-6 23h27s.9-29.98 29.47-55z" stroke-width="1.2" stroke="#000" stroke-miterlimit="10" fill="none"/><path d="M153.5 251.5c7.6-.12 26-2 27-14s-27-8-27-8-22 1-22 11 15.85 11.1 22 11z" stroke="#000" stroke-miterlimit="10" fill="none"/><path d="M138.5 166.5s12 33 4 72c0 0 1 6 12 5s12-5 12-5 6-37-10-75c0 0-11 3-18 3z" fill="#6d6e70" stroke="#000" stroke-miterlimit="10"/><path d="M161 176a15.59 15.59 0 0 1-7.53 3.51c-5 1-9 1-11.52 0M163.66 185.38c-1.18 2.51-2.36 7.71-20 5.42M166.32 200.74s-4.63 7.77-21.23 3.27M167.42 213.41s-3.73 9.13-22.33 4.11M167.42 227.17s-7.75 9.36-23.34 1.85" stroke="#000" stroke-miterlimit="10" fill="none"/><circle cx="154.5" cy="247.5" r="1.5"/><circle cx="166.5" cy="244.5" r="1.5"/><circle cx="174.5" cy="237.5" r="1.5"/><circle cx="168.5" cy="232.5" r="1.5"/><circle cx="142.5" cy="245.5" r="1.5"/><circle cx="137.5" cy="240.5" r="1.5"/><path d="M150.5 164.5s10.5 29.5 11 45a328.75 328.75 0 0 1-1 33l6-3c3.29-1.87.5-61.5-10-76z" fill-opacity=".2"/>
    <path d="M177 71s-73-2-82 51c0 0-4.5 17.5 1.5 40.5s14 50 14 50 6 10 46 6 75-25 75-25-10-100-16-108S203 72 177 71z" fill="currentColor"/><path d="M135.5 78.5s1 4-5 9-20 12-25 31 0 29 2 37 7 25 6 35-4.75 16-4.75 16-21.38-60.92-12.82-89S129 81 135.5 78.5z" fill="#fff" fill-opacity=".4"/><path d="M177 71s-73-2-82 51c0 0-4.5 17.5 1.5 40.5s14 50 14 50 6 10 46 6 75-25 75-25-10-100-16-108-15-15-38.5-14.5z" stroke="#000" stroke-miterlimit="10" fill="none"/><path d="M177 70s-73-2-82 51c0 0-4.5 17.5 1.5 40.5s14 50 14 50 6 10 46 6 75-25 75-25-10-100-16-108-15-15-38.5-14.5z" stroke="#000" stroke-miterlimit="10" fill="none"/><path d="M205.5 86.5s-27 2-29 28 9 73 9 73l5.38 23.67 40.62-17.67s-8-94-15-106c-.02.01-8-1-11-1z" fill-opacity=".2" stroke-width=".75" stroke="#000" stroke-miterlimit="10"/><circle cx="147.5" cy="214.5" r="1.5"/><circle cx="165.5" cy="211.5" r="1.5"/><circle cx="183.5" cy="206.5" r="1.5"/><circle cx="196.5" cy="202.5" r="1.5"/><circle cx="208.5" cy="198.5" r="1.5"/><circle cx="219.5" cy="194.5" r="1.5"/><circle cx="228.5" cy="190.5" r="1.5"/><circle cx="130.5" cy="214.5" r="1.5"/><circle cx="115.5" cy="210.5" r="1.5"/>
    <path d="M127.5 127.5c11.08-.53 43-2 43 11 1 15-16.69 15-23.34 15.52s-37.66 1.48-47.66.48-15-4-15-12 8-11 17-13 19.5-1.69 26-2z" fill="currentColor"/><path d="M94.39 132.09s2.78-4.25 37.95-4.92 37.17 6.33 38.17 11.33-3 10.76-6 11.88c0 0 5.52-6.38-2.24-11.63s-22.72-6.58-29.74-6.91-24.86-.88-27.94-.61-8.31.44-10.2.86z" fill-opacity=".4" fill="#fff"/><path d="M127.5 127.5c11.08-.53 43-2 43 11 1 15-16.69 15-23.34 15.52s-37.66 1.48-47.66.48-15-4-15-12 8-11 17-13 19.5-1.69 26-2z" stroke="#000" stroke-miterlimit="10" fill-opacity=".2" fill="#fff"/><path d="M121.5 131.5c-19 0-36-3-37 11s19 12 40 12 42 0 42-9c0-11-26-14-45-14z" stroke-width=".75" fill="none" stroke="#000" stroke-miterlimit="10"/><path d="M121.5 140.5s29 0 32 1 2 4-1 4-22-1-31-1-22 1-26 0-1-2 11-3 15-1 15-1z" fill="red" stroke-width=".75" stroke="#000" stroke-miterlimit="10"/>
    <path d="M109.5 197.5c0 4 1 5 1 5h34c10 0 21-1 21-1v-23l-1-4h-2c-2 0-54.5.5-54.5.5v11z" fill="currentColor"/><path d="M163.5 174.5v25s-52 1.5-53.75 1l.61 1.79 28.9.21s19.65-.79 21.7-.65A9 9 0 0 0 165 201l.41-22.84S164 174 163.5 174.5z" opacity=".4"/><path d="M109.5 197.5c0 4 1 5 1 5h34c10 0 21-1 21-1v-23l-1-4h-2c-2 0-54.5.5-54.5.5v11z" stroke-miterlimit="10" stroke="#000" fill="none"/><path d="M113.5 200.5h27c10 0 23-1 23-1v-24" stroke-width=".5" stroke-linecap="round" stroke-linejoin="round" stroke="#000" fill="none"/><path stroke-width=".5" stroke-miterlimit="10" stroke="#000" fill="none" d="M163.5 199.5l1.5 1.5"/><path d="M162 177v12" stroke-width=".5" stroke-linecap="round" stroke-linejoin="round" stroke="#000" fill="none"/><path d="M112.5 177.5h27c9 0 20-1 20-1v20l-54 1a34.21 34.21 0 0 1 2-11 44.27 44.27 0 0 1 5-9z" fill="#f6921e" stroke-width="1.2" stroke-linecap="round" stroke-linejoin="round" stroke="#000"/><path d="M159 176.5s-3 7.5-4 11.5a87 87 0 0 0-1.59 8.61l-12.91.19s-1-2.3 1-7.3 5-12 5-12 11-.5 12.5-1zM128.5 196.89h-11a19.28 19.28 0 0 1 2-11.22c3-6.12 3.75-8.16 3.75-8.16h11.56s-1.31 3.06-2.31 6.12-4 6.12-4 10.2z" stroke-width=".75" fill="#f9ec31" stroke-miterlimit="10" stroke="#000"/><path d="M135.13 177.5h11.37l-5.43 13.25a8.08 8.08 0 0 0-.82 4c.25 1.89 0 2.25 0 2.25H128.5a23.82 23.82 0 0 1 .92-7.35c1.08-3.08 2.1-3 3.59-7.58s2.12-4.57 2.12-4.57z" fill="#f05a27" stroke-width=".75" stroke-linecap="round" stroke-linejoin="round" stroke="#000"/>
    <path d="M122.5 94.5s4 3 13 3 16-6 16-6a26.39 26.39 0 0 0-1-7c-1-3-10.49-2.87-15.74-1.93s-11.26.93-12.26 3.93z" fill="currentColor"/><ellipse cx="133" cy="26" rx="7.5" ry="6.5" stroke-miterlimit="10" stroke="#000" fill="#be1e2d"/><path d="M140 25c.19.68-5.51 8.12-11.57 6.27a8.65 8.65 0 0 0 7.91.53C141 30 140 25 140 25z" fill="#561317"/><ellipse cx="130.22" cy="22.93" rx="4.46" ry="2.23" transform="matrix(.87 -.5 .5 .87 5.98 68.18)" fill="#ed293b"/><ellipse cx="133" cy="26" rx="7.5" ry="6.5" stroke-width=".75" fill="none" stroke-miterlimit="10" stroke="#000"/><path d="M135.5 82.5s-13 1-13 4 9 4 13 4 15-2 15-6-15-2-15-2z" stroke-linecap="round" stroke-linejoin="round" fill-opacity=".2" fill="#fff" stroke-width=".75" stroke="#000"/><path d="M122.5 94.5s4 3 13 3 16-6 16-6a26.39 26.39 0 0 0-1-7c-1-3-10.49-2.87-15.74-1.93s-11.26.93-12.26 3.93z" stroke-linecap="round" stroke-linejoin="round" fill="none" stroke="#000"/><path d="M148.19 93.77c.31-1.27-.69-6.27-.69-6.27s-7.41-2.59-8.2-2.3 1.86-.8 2-1.75.23-1.43.23-1.43 3.12 0 5.53.25 3.41 1.47 3.41 2.35l.64 2.58.36 4.29-3 2" fill-opacity=".2"/><path d="M133 29.24s-7.5 13.21-6.5 28.88a245.78 245.78 0 0 0 3 26.43s0 2 4 2a14 14 0 0 0 7-2 3.4 3.4 0 0 0 1-2c0-1-11-18.6-8-48.94 0 .03 1-5.84-.5-4.37z" fill="#e6e7e8" stroke-miterlimit="10" stroke="#000"/><path d="M130.5 46.5a94.41 94.41 0 0 0 2 18 145.29 145.29 0 0 0 6 19l.52 1.8s2.48-.8 2.48-2.8c0 0-6.45-14.41-7.23-22.71s-1.77-20.29-.77-26.29c0 0-.08-3.33.21-2.91S130 38 130.5 46.5z" fill="#d0d2d3"/><path d="M133 29.24s-7.5 13.21-6.5 28.88a245.78 245.78 0 0 0 3 26.43s0 2 4 2a14 14 0 0 0 7-2 3.4 3.4 0 0 0 1-2c0-1-11-18.6-8-48.94 0 .03 1-5.84-.5-4.37z" fill="none" stroke-miterlimit="10" stroke="#000"/><path d="M126 46s-9 1-9 6 10 5 13 5 12-1 12-6-8-5-8-5" stroke-linecap="round" stroke-linejoin="round" fill="none" stroke="#000"/>
</g>
</svg>
