
<svg viewBox="0 0 300 300" width="60" height="60" xmlns="http://www.w3.org/2000/svg" xmlns:xlink="http://www.w3.org/2000/xlink">                
<g style="color:#3769B4">
    <rect fill="#69CD37" x="0" y="0" width="320" height="320"></rect>
    <g fill="currentColor"><path d="M95.13 227.69S74.5 232.5 73.5 248.5c-.44 7.05 4.25 12.09 9.63 15.53a52.45 52.45 0 0 0 14.79 6.13s-3.16-18.66-2.79-30.66 0-11.81 0-11.81z"/><path d="M97.5 301.5s2-21 0-35-2-29-2-36 14-26.11 46-28.05 59-1.95 63 18.05 3 30 3 30 2 53 0 55-110-4-110-4z"/><path d="M204.5 220.5s28 1 29 23-16.9 23.5-25.5 24.74c0 0 1.5-34.74-3.5-47.74z" stroke="#000" stroke-miterlimit="10"/></g><path d="M95.5 230.5s-7 20 40 23 69-15.69 69.51-30.35-12.33-22.39-48.92-21.52S100.5 212.5 95.5 230.5z" fill="none" stroke="#000" stroke-miterlimit="10"/><path d="M87.5 232.5s-9 9-9 14 6 16 2 15-7.57-12-5.79-18.48S86.5 229.5 87.5 232.5z" fill-opacity=".4" fill="#fff"/><path d="M97.5 301.5s2-21 0-35-2-29-2-36 14-26.11 46-28.05 59-1.95 63 18.05 3 30 3 30 2 53 0 55-110-4-110-4z" fill="none" stroke="#000" stroke-miterlimit="10"/><path d="M102.5 227.5s-4 22 38 21c0 0 56 2 57-26s-69-14-69-14-22 6-26 19z" fill-opacity=".4" stroke="#000" stroke-miterlimit="10"/><path d="M95.5 230.5s-7 20 40 23 69-15.69 69.51-30.35-12.33-22.39-48.92-21.52S100.5 212.5 95.5 230.5z" fill="none" stroke="#000" stroke-miterlimit="10"/><path d="M95.13 227.69S74.5 232.5 73.5 248.5c-.44 7.05 4.25 12.09 9.63 15.53a52.45 52.45 0 0 0 14.79 6.13s-3.16-18.66-2.79-30.66 0-11.81 0-11.81zM204.5 220.5s28 1 29 23-16.9 23.5-25.5 24.74c0 0 1.5-34.74-3.5-47.74z" fill="none" stroke="#000" stroke-miterlimit="10"/><path d="M104.5 263.5a4.45 4.45 0 0 0 2 5c3 2 7 0 6-2s-6-6-8-3zM109.5 276.5s-5-1-5 9a161.75 161.75 0 0 0 1 18l11 1s-3-5-3-14-1-12-4-14z" fill-opacity=".4" fill="#fff"/><path d="M224.9 263.3s-1.4 20.2 16.6 39.2h-22s-7.35-6.33-11.18-20.67l.18-13.33s9.8-.4 16.4-5.2z" fill="#6d6e70" stroke="#000" stroke-miterlimit="10"/><path d="M208.5 281.5a10.58 10.58 0 0 1 11-6c8 1 7.71 3 7.71 3M215.68 298s4.82-4.52 10.82-4.52a18.1 18.1 0 0 1 9.41 2.26" fill="none" stroke="#000" stroke-miterlimit="10"/><path d="M217.85 223.44s9.65 6.06 7.65 17.06-8 16.09-17 18.54v9.46s24.08-.06 25-22.53c.04.03 2.71-12.58-15.65-22.53z" opacity=".2"/><path d="M76.5 302.5s9-10 8-24l-1-14 14 6s2 24 0 31-21 1-21 1z" fill="#6d6e70" stroke="#000" stroke-miterlimit="10"/><path d="M97.5 282.5s-3.87-3-12.94-1M97.5 298.5s-2.26-5.48-16.63-2.74" fill="none" stroke="#000" stroke-miterlimit="10"/><path d="M90.5 270.5s7 25 0 32l7-1v-31l-8.76-3.76zM85.5 273.5s5 22-2 29-4.6-3.27-4.6-3.27 4.73-4.71 5.66-15.22l.94-10.51M225.8 272.89s-12.3-6.39-12.3.61 11 28 14 31-6 0-6 0-10.71-12.76-12.36-19.88-.64-16.12-.64-16.12l16.4-5.2z" fill-opacity=".2"/><path d="M197.51 304.5s4-34 0-53c-2.39-11.36-2.58-11.5-2.55-11.32 0 0 8.57-4.37 10.06-17s3.49 45.35 3.49 45.35v37z" fill-opacity=".2"/><circle cx="104" cy="254" r="1.5"/><circle cx="115.5" cy="258.5" r="1.5"/><circle cx="129.5" cy="261.5" r="1.5"/><circle cx="146.5" cy="262.5" r="1.5"/><circle cx="164.5" cy="260.5" r="1.5"/><circle cx="180.5" cy="255.5" r="1.5"/><circle cx="193.5" cy="248.5" r="1.5"/><circle cx="202.5" cy="241.5" r="1.5"/><path d="M139.5 181.5l1 39s0 7 10 7 11-10 11-10a155.16 155.16 0 0 1-3-16c-1-8 0-20 0-20h-19z" fill="#6d6e70" stroke="#000" stroke-miterlimit="10"/><path d="M158 185.5s.33 3.92-18.35 2M158 197.5s0 6-17.5 1M160 210.5s-2.35 7-20 2" fill="none" stroke="#000" stroke-miterlimit="10"/><path d="M151.5 183.5a14.82 14.82 0 0 0 0 10c2 5 5 18 4 24a61.38 61.38 0 0 1-2.35 9.74s9.35-4.74 8.35-9.74-2.37-8.51-3.18-17.76a104.59 104.59 0 0 1 .18-18.24h-6.4z" fill-opacity=".2"/>
    <path d="M147 88c-20.15-.5-56.5 14.5-56.5 57.5 0 0 1 22 6 41s10 34 10 37c0 0 3 12 25 11s62-15 62-15-2-31-3-49S196.79 89.24 147 88z" fill="currentColor"/><path d="M147 88c-20.15-.5-56.5 14.5-56.5 57.5 0 0 1 22 6 41s10 34 10 37c0 0 3 12 25 11s62-15 62-15-2-31-3-49S196.79 89.24 147 88z" fill="none" stroke="#000" stroke-linecap="round" stroke-linejoin="round"/><path d="M147 87c-20.15-.5-56.5 14.5-56.5 57.5 0 0 1 22 6 41s10 34 10 37c0 0 3 12 25 11s62-15 62-15-2-31-3-49S196.79 88.24 147 87z" fill="none" stroke="#000" stroke-linecap="round" stroke-linejoin="round"/><path d="M135.5 96.5s36-4 45 43c0 0 3 24 3 35s-1 25 1 36l2 11 7-2s-2.53-55.76-3.27-70.88S188.5 90.81 150 88.16c0 0-19.78-1-33.64 8.7 0 0-4.86 4.65.14 2.65s16-3.01 19-3.01z" fill-opacity=".2"/><path d="M122.5 104.5s-4 1-4 4 2 7 5 6 5-5 4-7-2-4-5-3zM115.5 111.5s-9-6-17 12-1 37-1 37 2 6 8 6 4-9 4-9-4-13-1-24 7-13 7-13 5-5 0-9z" fill="#fff" fill-opacity=".4"/><circle cx="111" cy="223" r="1.5"/><circle cx="125.5" cy="227.5" r="1.5"/><circle cx="141.5" cy="226.5" r="1.5"/><circle cx="159.5" cy="223.5" r="1.5"/><circle cx="175.5" cy="219.5" r="1.5"/><circle cx="188.5" cy="214.5" r="1.5"/>
    <g fill="currentColor"><path d="M110.5 122.5c-4 0-17 2-17 17s10 17 17 17 15-5 15-18-11-16-15-16z"/><path d="M153.5 121.5c-4 0-17.5 2.5-17.5 17.5s10.5 16.5 17.5 16.5 16-5 16-18c-2.5-15.5-12-16-16-16z"/></g><path d="M110.5 126.5s-13 0-13 12 10 13 13 13 12-2 12-14.52c0 .02-1-9.48-12-10.48z" stroke-width=".5" stroke="#000" stroke-linecap="round" stroke-linejoin="round" fill-opacity=".2"/><path d="M154.5 121.5s-20 0-19 18 19 16 19 16 16-2 15-17-11-17-15-17zM110.5 122.5c-4 0-17 2-17 17s10 17 17 17 15-5 15-18-11-16-15-16z" fill-opacity=".4" stroke="#000" stroke-linecap="round" stroke-linejoin="round"/><path d="M140.1 137.73s-2 13.2 12.18 13.2 14.22-10.15 14.22-13.2-3-12.18-12.18-12.18-14.22 7.1-14.22 12.18z" fill-opacity=".4" stroke-width=".5" stroke="#000" stroke-linecap="round" stroke-linejoin="round"/><path d="M109 127s-9 1-9 9 2.5 12.5 10.5 12.5 12-5 12-10-5-12-13.5-11.5zM154 126s-10.5.52-11 9.4 4 13.6 11 13.6 12-6.26 12-11.49-4.5-12-12-11.51z" fill="#461917" stroke-width=".5" stroke="#000" stroke-linecap="round" stroke-linejoin="round"/><path d="M110.26 134.06a.92.92 0 0 0-.24.05c-.36.13-1 .61-1 2.31 0 2.36 0 3.54 1.26 3.54s2.51 0 2.51-3.54c-.02-2.36-1.67-2.56-2.53-2.36zM154.26 134.06a.92.92 0 0 0-.24.05c-.36.13-1 .61-1 2.31 0 2.36 0 3.54 1.26 3.54s2.51 0 2.51-3.54c-.02-2.36-1.67-2.56-2.53-2.36z" fill="#faaf40"/>
    <path d="M130.5 175.5v15a73.09 73.09 0 0 0 1 13s6 1 6 0-1-28-1-28c-2.32-.12-5.22-.44-6 0z" fill="currentColor"/><path d="M130.5 175.5v15a73.09 73.09 0 0 0 1 13s6 1 6 0-1-28-1-28c-2.32-.12-5.22-.44-6 0z" stroke="#000" stroke-linecap="round" stroke-linejoin="round" fill="none"/><path d="M131.65 203a75.68 75.68 0 0 1-1.4-15.06 102.33 102.33 0 0 1 .48-12.27 3 3 0 0 1 1.25-.25 5.33 5.33 0 0 1 1 .1l.43.2s0 .16-.13.72a138.49 138.49 0 0 0-1 14.06 64.14 64.14 0 0 0 1 10.92z" opacity=".4"/><path d="M132 175.67a5 5 0 0 1 .87.08l.25.11a3.34 3.34 0 0 1-.09.52v.05a139.54 139.54 0 0 0-1 14.06 64.67 64.67 0 0 0 1 10.83l-1.16 1.16a77 77 0 0 1-1.3-14.56 107.4 107.4 0 0 1 .46-12.1 2.85 2.85 0 0 1 1-.17m0-.5a3.13 3.13 0 0 0-1.48.33s-.5 3-.5 12.44a72 72 0 0 0 1.5 15.56l2-2a62.68 62.68 0 0 1-1-11 138 138 0 0 1 1-14c.13-.56.15-.92 0-1l-.5-.23a5.57 5.57 0 0 0-1-.1z"/><path d="M137.19 201.56a5.59 5.59 0 0 0-2.48-.65 3.64 3.64 0 0 0-1.34.25 39.16 39.16 0 0 1-1.12-9c0-4.56 1.26-14.93 1.47-16.62l2.54.17.56 15.47z" fill="#461917"/><path d="M133.94 175.83l2.06.17.56 15.25.35 9.94a5.61 5.61 0 0 0-2.21-.5 4 4 0 0 0-1.17.17 39 39 0 0 1-1-8.64c0-4.37 1.16-14.11 1.44-16.36m-.44-.53s-1.5 11.86-1.5 16.89a38.68 38.68 0 0 0 1.2 9.31 3.33 3.33 0 0 1 1.51-.35 5.56 5.56 0 0 1 2.74.85l-.38-10.8-.57-15.7-3-.2z"/><path d="M137.5 201.5v2h-5.7l1.7-2s1-2 4 0z" fill-opacity=".4" stroke-width=".75" stroke="#000" stroke-linecap="round" stroke-linejoin="round"/>
    <path d="M122.5 94.5s4 3 13 3 16-6 16-6a26.39 26.39 0 0 0-1-7c-1-3-10.49-2.87-15.74-1.93s-11.26.93-12.26 3.93z" fill="currentColor"/><ellipse cx="133" cy="26" rx="7.5" ry="6.5" stroke-miterlimit="10" stroke="#000" fill="#be1e2d"/><path d="M140 25c.19.68-5.51 8.12-11.57 6.27a8.65 8.65 0 0 0 7.91.53C141 30 140 25 140 25z" fill="#561317"/><ellipse cx="130.22" cy="22.93" rx="4.46" ry="2.23" transform="matrix(.87 -.5 .5 .87 5.98 68.18)" fill="#ed293b"/><ellipse cx="133" cy="26" rx="7.5" ry="6.5" stroke-width=".75" fill="none" stroke-miterlimit="10" stroke="#000"/><path d="M135.5 82.5s-13 1-13 4 9 4 13 4 15-2 15-6-15-2-15-2z" stroke-linecap="round" stroke-linejoin="round" fill-opacity=".2" fill="#fff" stroke-width=".75" stroke="#000"/><path d="M122.5 94.5s4 3 13 3 16-6 16-6a26.39 26.39 0 0 0-1-7c-1-3-10.49-2.87-15.74-1.93s-11.26.93-12.26 3.93z" stroke-linecap="round" stroke-linejoin="round" fill="none" stroke="#000"/><path d="M148.19 93.77c.31-1.27-.69-6.27-.69-6.27s-7.41-2.59-8.2-2.3 1.86-.8 2-1.75.23-1.43.23-1.43 3.12 0 5.53.25 3.41 1.47 3.41 2.35l.64 2.58.36 4.29-3 2" fill-opacity=".2"/><path d="M133 29.24s-7.5 13.21-6.5 28.88a245.78 245.78 0 0 0 3 26.43s0 2 4 2a14 14 0 0 0 7-2 3.4 3.4 0 0 0 1-2c0-1-11-18.6-8-48.94 0 .03 1-5.84-.5-4.37z" fill="#e6e7e8" stroke-miterlimit="10" stroke="#000"/><path d="M130.5 46.5a94.41 94.41 0 0 0 2 18 145.29 145.29 0 0 0 6 19l.52 1.8s2.48-.8 2.48-2.8c0 0-6.45-14.41-7.23-22.71s-1.77-20.29-.77-26.29c0 0-.08-3.33.21-2.91S130 38 130.5 46.5z" fill="#d0d2d3"/><path d="M133 29.24s-7.5 13.21-6.5 28.88a245.78 245.78 0 0 0 3 26.43s0 2 4 2a14 14 0 0 0 7-2 3.4 3.4 0 0 0 1-2c0-1-11-18.6-8-48.94 0 .03 1-5.84-.5-4.37z" fill="none" stroke-miterlimit="10" stroke="#000"/><path d="M126 46s-9 1-9 6 10 5 13 5 12-1 12-6-8-5-8-5" stroke-linecap="round" stroke-linejoin="round" fill="none" stroke="#000"/>
</g>
</svg>
