
<svg viewBox="0 0 300 300" width="60" height="60" xmlns="http://www.w3.org/2000/svg" xmlns:xlink="http://www.w3.org/2000/xlink">                
<g style="color:#82699B">
    <rect fill="#699B05" x="0" y="0" width="320" height="320"></rect>
    <g fill="currentColor"><path d="M180.45 252.21s-17.95-2.71-29.95 2.29-15 8-16 24c0 0 1 27 1 28s49 1 49 1v-9a27.15 27.15 0 0 1-3-13c0-8 7-6.16 7-6.16s-11.5-.34-11.26-16.09a16.2 16.2 0 0 1 3.21-11.04z"/><path d="M133.5 277.5s-6.92-1.5-8-5.25l-.68-1.62c-.37-6.66 1.07-12 5.72-15 0 0 5.17-4.37 11.55-4.24 0 0 5.37.13 7.37 3.13 0 0-9 3.6-12 9.3s-3.09 13.32-3 14zM188.5 247.5s-8 2-10 8-3 19 8 23 19-7 19-17-4-16-17-14z"/></g><path d="M134.5 254.5s3-1 3 0-6 5-7 10 0 8-2 8-4.67.09-2.84-10.45a13 13 0 0 1 8.84-7.55z" fill="#fff" fill-opacity=".4"/><path d="M133.5 277.5s-6.92-1.5-8-5.25l-.68-1.62c-.37-6.66 1.07-12 5.72-15 0 0 5.17-4.37 11.55-4.24 0 0 5.37.13 7.37 3.13 0 0-9 3.6-12 9.3s-3.09 13.32-3 14z" stroke-miterlimit="10" stroke="#000" fill="none"/><path d="M189.5 248.5s9 0 9 10-4 16-9 17-7 .77-7 .77a12.77 12.77 0 0 0 8 3.07c5 .16 15-4.84 15-17.84s-7.26-14.64-14.13-14.32-2.87 1.32-1.87 1.32z" fill-opacity=".2"/><path d="M188.5 247.5s-8 2-10 8-3 19 8 23 19-7 19-17-4-16-17-14z" stroke-miterlimit="10" stroke="#000" fill="none"/><path d="M201.86 273.17s9.64 10.33 9.64 28.33h-13s2.74-14.31-7.13-22.15a11.59 11.59 0 0 0 10.49-6.18z" fill="#6d6e70" stroke-miterlimit="10" stroke="#000"/><path d="M197.5 279.5s5 8 6 15 0 9 0 9h8s1.5-10.5-4.74-22.76c0 0-3.26-6.24-5.26-7.24a22 22 0 0 1-4.74 4.65z" fill-opacity=".2"/><path d="M180.45 252.21s-17.95-2.71-29.95 2.29-15 8-16 24c0 0 1 27 1 28s49 1 49 1v-9a27.15 27.15 0 0 1-3-13c0-8 7-6.16 7-6.16s-11.5-.34-11.26-16.09a16.2 16.2 0 0 1 3.21-11.04z" stroke-miterlimit="10" stroke="#000" fill="none"/><path d="M169.5 304.5s-7-21 0-42c0 0 3.39-7.79 10.2-10.39l.8.39s-3.64 3.11-3.32 10.06 2.16 14.4 9.74 16.17a5.19 5.19 0 0 0-5 3.77c-1.44 4 .38 11.28 1.47 13.64a13.05 13.05 0 0 1 1.11 4.86z" fill-opacity=".2" stroke-miterlimit="10" stroke="#000"/><path d="M142.5 259.5a2.19 2.19 0 0 1 3 1q1.5 3-3 9c-3 4-3 14-2 19s2 10 2 13h-7.16s-1.34-17.5-.59-26.24 2.49-12.37 6.12-15.56z" fill="#fff" fill-opacity=".4"/><path d="M150 254.71s-4.5-4.21-10.5-3.21-14 6-15 15 9 12 10 12c0 0-2-18.58 15.5-23.79z" stroke-miterlimit="10" stroke="#000" fill="none"/><path d="M130.17 276.81a64.62 64.62 0 0 1-1.51 10.87c-1.2 5.22-3.35 11-7.16 13.82l13.79-.59s-.79-21.41-.79-22.41z" fill="#6d6e70" stroke-miterlimit="10" stroke="#000"/><path d="M134.5 290.5s-2.86-2.88-5.93-2.44M124 299s5.55-1.48 9 2" stroke-miterlimit="10" stroke="#000" fill="none"/><path d="M150 192s1 61 2 64c0 0 2 5 10 3 0 0 6-1 6-7 0 0-3.5-40.5-2.5-60.5 0 0-13 0-15.5.5z" fill="#6d6e70" stroke-miterlimit="10" stroke="#000"/><path d="M164.5 202.5s0 3-5 3-8.56-1-9.28-1.5M165 214.5s-1 2-5.18 2a39.35 39.35 0 0 1-9.38-1.58" stroke-linecap="round" stroke-linejoin="round" stroke="#000" fill="none"/><path d="M166 224.5s0 2-4.62 3-10.38-1-10.38-1M166 233.5s0 2-3.21 3a16.53 16.53 0 0 1-11.79-1M167 244.5a7 7 0 0 1-5.17 4c-4.13 1-10.48-1.51-10.48-1.51M207 281.6s-4-2.4-12 2.4M211.42 296.16s-2.24-4.33-12.58 1.51" stroke-miterlimit="10" stroke="#000" fill="none"/><path d="M159 191.5h6.5v10s1 20 .89 29.33a182.26 182.26 0 0 0 1.61 21.92c-.5 4.25-5.5 5.75-5.5 5.75v-2c0-2 1-15 1-23s-4-40-4-40z" fill-opacity=".2"/>
    <path d="M143 89s-39 6-64 66 15.5 70.5 34.5 74.5 85 13 102-27-40-117-72.5-113.5z" fill="currentColor"/><path d="M143 88s-39 6-64 66 15.5 70.5 34.5 74.5 85 13 102-27-40-117-72.5-113.5z" fill="none" stroke="#000" stroke-miterlimit="10"/><path d="M99 121.07S122 96 139.5 98.5a137.38 137.38 0 0 1 21.88 7.59s4.12-7.59 6.12-8.59-17-9-23-9c-11.5.5-35 16.14-45.5 32.57z" fill-opacity=".2" fill="#fff"/><path d="M143 89s-39 6-64 66 15.5 70.5 34.5 74.5 85 13 102-27-40-117-72.5-113.5z" fill="none" stroke="#000" stroke-miterlimit="10"/><path d="M161.38 106.09a20.31 20.31 0 0 0-1.88 4.41c-1 6 2 11 9 19s20 27 21 45 1 35-13 45-24.21 14.08-24.21 14.08 34.71.42 47.8-19.51c11.41-15.58 10.59-36 0-59.77-11.09-27.31-33.81-44.6-33.81-44.6z" fill-opacity=".2"/><path d="M167.41 97.44c-2.41-.44-5.91 9.06-5.91 9.06s27 14 39 48 8.86 41 5.43 50-17.62 24.63-36 27.81 37.6-2.82 45.6-29.82c11.5-39.5-22.87-80.23-22.87-80.23S175 101 167.41 97.44z" fill-opacity=".1"/><path d="M91.5 140.5s-14 24-12 43 12 26 19 31 9.2 13.33 9.2 13.33S72 224 71.08 186.84c0 0 3.19-39.76 30.31-68.55L113.22 108S95.5 132.5 91.5 140.5z" fill-opacity=".4" fill="#fff"/><circle cx="138.5" cy="106.5" r="2"/><circle cx="111" cy="115" r="2"/><circle cx="164" cy="117" r="2"/><circle cx="185" cy="136" r="2"/><circle cx="194" cy="158" r="2"/><circle cx="201" cy="181" r="2"/><circle cx="200" cy="205" r="2"/><circle cx="183" cy="218" r="2"/><circle cx="164" cy="223" r="2"/><circle cx="142" cy="223" r="2"/><circle cx="118" cy="221" r="2"/><circle cx="97" cy="218" r="2"/><path d="M139.5 98.5s35 3 57 48 13.83 72-24.08 85c-54.92 7-79.92-7-91-16.46-1.5.92-21-20.3-3-60.55C95.74 116 122.5 97.5 139.5 98.5z" fill="none" stroke="#000" stroke-miterlimit="10"/>
    <g fill="currentColor"><path d="M112.71 130h-.49c-2.46 0-13.35.38-14.22 11-1 12 8.33 13.5 12.26 13.5s12.75-3 12.75-13c-.01-11-10.3-11.5-10.3-11.5zM156.71 130h-.49c-2.46 0-13.35.38-14.22 11-1 12 8.33 13.5 12.26 13.5s12.75-3 12.75-13c-.01-11-10.3-11.5-10.3-11.5z"/></g><path d="M112.71 130h-.49c-2.46 0-13.35.38-14.22 11-1 12 8.33 13.5 12.26 13.5s12.75-3 12.75-13c-.01-11-10.3-11.5-10.3-11.5z" stroke="#000" fill-opacity=".55" stroke-miterlimit="10" stroke-width=".75"/><path d="M111.23 130.5s-9.8 1-9.8 10 4.9 11 10.78 11a11 11 0 0 0 10.78-11c.01-6-5.87-10-11.76-10z" fill="#461917" stroke-linecap="round" stroke-linejoin="round" stroke-width=".5" stroke="#000"/><ellipse cx="112.22" cy="140.5" rx="1.96" ry="3" fill="#ec1c24"/><path d="M156.71 130h-.49c-2.46 0-13.35.38-14.22 11-1 12 8.33 13.5 12.26 13.5s12.75-3 12.75-13c-.01-11-10.3-11.5-10.3-11.5z" stroke="#000" fill-opacity=".55" stroke-miterlimit="10" stroke-width=".75"/><path d="M155.23 130.5s-9.8 1-9.8 10 4.9 11 10.78 11a11 11 0 0 0 10.78-11c.01-6-5.87-10-11.76-10z" fill="#461917" stroke-linecap="round" stroke-linejoin="round" stroke-width=".5" stroke="#000"/><ellipse cx="156.22" cy="140.5" rx="1.96" ry="3" fill="#ec1c24"/>
    <g fill="currentColor"><path d="M122 180s1 10 2 14 1.5 6.5 1.5 6.5 3 0 4-1-2-17-2-18v-2s-1.49 0-3 .11a12 12 0 0 0-2.5.39z"/><path d="M131 179s1 10 2 14 1.5 6.5 1.5 6.5 3 0 4-1-2-17-2-18v-2s-1.49 0-3 .11a12 12 0 0 0-2.5.39zM141 179s1 10 2 14 1.5 6.5 1.5 6.5 3 0 4-1-2-17-2-18v-2s-1.49 0-3 .11a12 12 0 0 0-2.5.39zM149 178s1 10 2 14 1.5 6.5 1.5 6.5 3 0 4-1-2-17-2-18v-2s-1.49 0-3 .11a12 12 0 0 0-2.5.39z"/></g><path d="M122 180s1 10 2 14 1.5 6.5 1.5 6.5 3 0 4-1-2-17-2-18v-2s-1.49 0-3 .11a12 12 0 0 0-2.5.39z" fill-opacity=".4"/><path d="M122 180s1 10 2 14 1.5 6.5 1.5 6.5 3 0 4-1-2-17-2-18v-2s-1.49 0-3 .11a12 12 0 0 0-2.5.39z" stroke="#000" stroke-linecap="round" stroke-linejoin="round" fill="none"/><path d="M124.5 180.5s1 11 2 14a15.77 15.77 0 0 1 1 4s2.34-.11 2.17.44a31 31 0 0 0-.82-8.63 59 59 0 0 1-1.35-10.07v-.75h-3zM125.85 200.49l1.65-1.99" fill="#461917" stroke-width=".5" stroke="#000" stroke-linecap="round" stroke-linejoin="round"/><path d="M131 179s1 10 2 14 1.5 6.5 1.5 6.5 3 0 4-1-2-17-2-18v-2s-1.49 0-3 .11a12 12 0 0 0-2.5.39z" fill-opacity=".4"/><path d="M131 179s1 10 2 14 1.5 6.5 1.5 6.5 3 0 4-1-2-17-2-18v-2s-1.49 0-3 .11a12 12 0 0 0-2.5.39z" stroke="#000" stroke-linecap="round" stroke-linejoin="round" fill="none"/><path d="M133.5 179.5s1 11 2 14a15.77 15.77 0 0 1 1 4s2.34-.11 2.17.44a31 31 0 0 0-.82-8.63 59 59 0 0 1-1.35-10.07v-.75h-3zM134.85 199.49l1.65-1.99" fill="#461917" stroke-width=".5" stroke="#000" stroke-linecap="round" stroke-linejoin="round"/><path d="M141 179s1 10 2 14 1.5 6.5 1.5 6.5 3 0 4-1-2-17-2-18v-2s-1.49 0-3 .11a12 12 0 0 0-2.5.39z" fill-opacity=".4"/><path d="M141 179s1 10 2 14 1.5 6.5 1.5 6.5 3 0 4-1-2-17-2-18v-2s-1.49 0-3 .11a12 12 0 0 0-2.5.39z" stroke="#000" stroke-linecap="round" stroke-linejoin="round" fill="none"/><path d="M143.5 179.5s1 11 2 14a15.77 15.77 0 0 1 1 4s2.34-.11 2.17.44a31 31 0 0 0-.82-8.63 59 59 0 0 1-1.35-10.07v-.75h-3zM144.85 199.49l1.65-1.99" fill="#461917" stroke-width=".5" stroke="#000" stroke-linecap="round" stroke-linejoin="round"/><path d="M149 178s1 10 2 14 1.5 6.5 1.5 6.5 3 0 4-1-2-17-2-18v-2s-1.49 0-3 .11a12 12 0 0 0-2.5.39z" fill-opacity=".4"/><path d="M149 178s1 10 2 14 1.5 6.5 1.5 6.5 3 0 4-1-2-17-2-18v-2s-1.49 0-3 .11a12 12 0 0 0-2.5.39z" stroke="#000" stroke-linecap="round" stroke-linejoin="round" fill="none"/><path d="M151.5 178.5s1 11 2 14a15.77 15.77 0 0 1 1 4s2.34-.11 2.17.44a31 31 0 0 0-.82-8.63 59 59 0 0 1-1.35-10.07v-.75h-3zM152.85 198.49l1.65-1.99" fill="#461917" stroke-width=".5" stroke="#000" stroke-linecap="round" stroke-linejoin="round"/>
    <path d="M136.5 83.5c-3.39.31-11 2-13 4a4.38 4.38 0 0 0-1 3v5a18.26 18.26 0 0 0 13 3c8-1 16-6 16-6s0-6-1-7-1-2-5-2-6.76-.2-9 0z" fill="currentColor"/><path d="M125.7 86.16s-2.2 1.34-1.2 3.34 7 3 12 2a53.37 53.37 0 0 0 11-4s3.57-2.09 1.29-3.54-16.9-1.13-23.09 2.2z" stroke-width=".75" stroke="#000" stroke-linecap="round" stroke-linejoin="round" fill-opacity=".2" fill="#fff"/><path d="M125.7 86.16s-2.2 1.34-1.2 3.34 7 3 12 2a55.23 55.23 0 0 0 8.61-2.5c-1.11-2-8.42-5.89-8.42-5.89s-7.22 1.02-10.99 3.05z" fill-opacity=".2" fill="#fff"/><path d="M136.5 83.5c-3.39.31-11 2-13 4a4.38 4.38 0 0 0-1 3v5a18.26 18.26 0 0 0 13 3c8-1 16-6 16-6s0-6-1-7-1-2-5-2-6.76-.2-9 0z" fill="none" stroke="#000" stroke-linecap="round" stroke-linejoin="round"/><path d="M134.5 73.5s-5 1-5 6 1 7 1 7a18.58 18.58 0 0 0 8 0c4-1 5-3 5-3s-1-10-9-10z" fill="#ec1c24" stroke="#000" stroke-linecap="round" stroke-linejoin="round"/><path d="M139.5 75.5s2 3 1 6-6 5-6 5 8-1 9-3-3-7-4-8z" fill-opacity=".1"/><path d="M134.5 73.5s-5 1-5 6 1 7 1 7a18.58 18.58 0 0 0 8 0c4-1 5-3 5-3s-1-10-9-10z" fill="none" stroke="#000" stroke-linecap="round" stroke-linejoin="round"/><path d="M144.5 88.5c1 1 0 7.3 0 7.3l7-3.3s0-6.14-1.5-7.57c-2 3.07-3 3.07-5.5 3.57z" fill-opacity=".2"/><path d="M133.5 75.5a1 1 0 0 1 1 1c0 1 0 6-2 6s-3 0-2-4 3-3 3-3z" fill-opacity=".4" fill="#fff"/>
</g>
</svg>
