
<svg viewBox="0 0 300 300" width="60" height="60" xmlns="http://www.w3.org/2000/svg" xmlns:xlink="http://www.w3.org/2000/xlink">                
<g style="color:#CDE69B">
    <rect fill="#053737" x="0" y="0" width="320" height="320"></rect>
    <g fill="currentColor"><path d="M106 247.52s-34.47 3-50.47 32c0 0-5 9-6 23h27s.9-29.98 29.47-55z"/><path d="M226.5 236.5s-6-10-26-12-56-2-81 13-43 44-43 65h115s3-31 22-53c0 0 8.88-7.45 14.44-9.22 0 0 .56-.78-1.44-3.78z"/><path d="M286.5 302.5s4-50-16-59-44-8-57 6-22 43-22 53z"/></g><path d="M91.18 264s5.32.48 3.32 9.48-5 7-7 17-2.5 12-2.5 12h-8.5s-.65-16.94 14.68-38.48z" fill="#fff" fill-opacity=".4"/><path d="M286.5 302.5s4-50-16-59-44-8-57 6-22 43-22 53z" stroke-width="1.2" stroke="#000" stroke-miterlimit="10" fill="none"/><path d="M268.5 247.5s-8 8-11 26-2.25 29-2.25 29h31.25s3.84-41.79-12.58-56.9c0 0-2.42-1.1-5.42 1.9z" fill-opacity=".2" stroke="#000" stroke-miterlimit="10"/><path d="M226.5 236.5s-6-10-26-12-56-2-81 13-43 44-43 65h115s3-31 22-53c0 0 8.88-7.45 14.44-9.22 0 0 .56-.78-1.44-3.78z" stroke-width="1.25" stroke="#000" stroke-miterlimit="10" fill="none"/><path d="M218.22 229.55s-18.72.95-31.72 20.95-17 37-17.5 52h22.5c-1.42.12 8.08-36.84 16-45.5 10-15.5 21-16.5 21-16.5s.43-4.9-10.28-10.95z" stroke-width=".75" fill-opacity=".2" stroke="#000" stroke-miterlimit="10"/><path d="M106 247.52s-34.47 3-50.47 32c0 0-5 9-6 23h27s.9-29.98 29.47-55z" stroke="#000" stroke-miterlimit="10" fill="none"/><path d="M80.61 255.48s2.89 2-6.11 12a94 94 0 0 0-17 26c-3 7-1.75 9-1.75 9H49.5s1.23-32.01 31.11-47z" fill="#fff" fill-opacity=".4"/><path d="M106 247.52s-34.47 3-50.47 32c0 0-5 9-6 23h27s.9-29.98 29.47-55z" stroke-width="1.2" stroke="#000" stroke-miterlimit="10" fill="none"/><path d="M153.5 251.5c7.6-.12 26-2 27-14s-27-8-27-8-22 1-22 11 15.85 11.1 22 11z" stroke="#000" stroke-miterlimit="10" fill="none"/><path d="M138.5 166.5s12 33 4 72c0 0 1 6 12 5s12-5 12-5 6-37-10-75c0 0-11 3-18 3z" fill="#6d6e70" stroke="#000" stroke-miterlimit="10"/><path d="M161 176a15.59 15.59 0 0 1-7.53 3.51c-5 1-9 1-11.52 0M163.66 185.38c-1.18 2.51-2.36 7.71-20 5.42M166.32 200.74s-4.63 7.77-21.23 3.27M167.42 213.41s-3.73 9.13-22.33 4.11M167.42 227.17s-7.75 9.36-23.34 1.85" stroke="#000" stroke-miterlimit="10" fill="none"/><circle cx="154.5" cy="247.5" r="1.5"/><circle cx="166.5" cy="244.5" r="1.5"/><circle cx="174.5" cy="237.5" r="1.5"/><circle cx="168.5" cy="232.5" r="1.5"/><circle cx="142.5" cy="245.5" r="1.5"/><circle cx="137.5" cy="240.5" r="1.5"/><path d="M150.5 164.5s10.5 29.5 11 45a328.75 328.75 0 0 1-1 33l6-3c3.29-1.87.5-61.5-10-76z" fill-opacity=".2"/>
    <path d="M147.5 88.5s-64 9-63 72c0 0-6 51 54 50 0 0 66-6 65-53s-31.5-70.5-56-69z" fill="currentColor"/><path d="M154.5 90.5s18 12 25 47 2 48-7 55-24.12 17.37-42.56 17.68c0 0 56.6 1.84 70.58-33.42.73-1.85 1.84-5.7 1.84-5.7S185.5 158.5 183.17 137c-1.67-14.45 2.33-24.45 6.49-24.63a7 7 0 0 0-.63-1.08C179.68 98 160 87 154.5 90.5z" fill-opacity=".2"/><path d="M147.5 87.5s-64 9-63 72c0 0-6 51 54 50 0 0 66-6 65-53s-33-71-56-69z" stroke="#000" stroke-miterlimit="10" fill="none"/><path d="M147.5 88.5s-64 9-63 72c0 0-6 51 54 50 0 0 66-6 65-53s-32-71-56-69z" stroke="#000" stroke-miterlimit="10" fill="none"/><path d="M92.22 125.67s2.28 14.83.28 24.83-7.67 21-7.67 21-3.89-23.65 7.39-45.83zM187.5 113.5s-7 10-4 26 12 27.67 18.5 29.83c0 0 5.83-35.17-12.83-57z" stroke-width=".75" fill="#fff" stroke="#000" stroke-miterlimit="10" fill-opacity=".2"/><path d="M112.5 112.5s-5-1-10 6-6 11-5 13 7 1 11-7 6-10 4-12zM117.5 102.5s-5 4-2 7a6.31 6.31 0 0 0 9 0c2-2 2-6-1-7a10.56 10.56 0 0 0-6 0z" fill-opacity=".4" fill="#fff"/><circle cx="188" cy="143" r="1.5"/><circle cx="193.5" cy="154.5" r="1.5"/><circle cx="199.5" cy="161.5" r="1.5"/><circle cx="88.5" cy="154.5" r="1.5"/><circle cx="89.5" cy="143.5" r="1.5"/><circle cx="90.5" cy="133.5" r="1.5"/><circle cx="186.5" cy="130.5" r="1.5"/><circle cx="190.5" cy="119.5" r="1.5"/>
    <path d="M99.5 142.5s0-10 12-14 26-4 26-4 20-1 25 2 5 9 5 11-2 11-19 13-33 3-33 3-16 0-16-11z" fill="currentColor"/><path d="M99.5 142.5s0-10 12-14 26-4 26-4 20-1 25 2 5 9 5 11-2 11-19 13-33 3-33 3-16 0-16-11z" stroke-linecap="round" stroke-linejoin="round" stroke="#000" fill-opacity=".6"/><path d="M107.16 130.47S105 133 105 138s2 9 8 10 20.5-1.5 20.5-1.5 11-2 18-2 15.74-2.78 15.87-5.89-.17-7.11-2.52-10.11-7.12-3.56-10.24-3.78-12.52-.54-14.82-.38-10.17.47-12.23.81-7.31 1.1-7.31 1.1l-7.61 1.87s-4.81 1.32-5.48 2.35z" stroke-width=".5" fill="#461917" stroke-linecap="round" stroke-linejoin="round" stroke="#000"/><path d="M109 135s-1 11 10 10 10-10 10-10 0-6-3-8-2.85-1.25-2.85-1.25-11.28 2.64-12.21 2.94S109 133 109 135z" fill="#f9ec31" stroke-width=".5" stroke-linecap="round" stroke-linejoin="round" stroke="#000"/><path d="M142 125s-3 2-3 7 3.5 10.5 9.5 10.5 12-4 12-10-3.66-7.5-3.66-7.5l-4.78-.47-4.22-.16h-3.44l-1.91.13z" stroke-miterlimit="10" fill="#f9ec31" stroke-width=".5" stroke="#000"/><path d="M119.42 133s-1.17 0-1.17 2.5 1.17 2.5 1.17 2.5a2.51 2.51 0 0 0 0-5zM150.08 130a1.8 1.8 0 0 0-1.82 1.94c-.07 2 .78 3 1.65 3.06s1.78-.94 1.85-2.94a1.8 1.8 0 0 0-1.68-2.06"/><path d="M99.5 142.5s0-10 12-14 26-4 26-4 20-1 25 2 5 9 5 11-2 11-19 13-33 3-33 3-16 0-16-11z" fill="none" stroke-linecap="round" stroke-linejoin="round" stroke="#000"/>
    <path d="M148 175s-6.5.5-12.5 1.5a83.3 83.3 0 0 1-12 1v14c0 2 3 13 13 12s13-7 13-11-1-17-1-17 0-1-.5-.5z" fill="currentColor"/><path d="M148 175s-6.5.5-12.5 1.5a83.3 83.3 0 0 1-12 1v14c0 2 3 13 13 12s13-7 13-11-1-17-1-17 0-1-.5-.5z" stroke="#000" stroke-miterlimit="10" fill-opacity=".4"/><path d="M129.59 177.21L130 191s1 7 7 8 12-.83 12.5-4.92-1-19.58-1-19.58l-10.88 1.67c-2.12.33-8.03 1.04-8.03 1.04z" fill="#f6921e" stroke="#000" stroke-miterlimit="10"/><path d="M137.25 176.19l.22 22.88s-7-.57-7.39-7.64c-.58-4.93-.58-13.93-.58-13.93z" fill="#f9ec31" stroke-width=".75" stroke="#000" stroke-miterlimit="10"/><path d="M129.59 177.21L130 191s1 7 7 8 12-.83 12.5-4.92-1-19.58-1-19.58l-10.88 1.67c-2.12.33-8.03 1.04-8.03 1.04z" fill="none" stroke="#000" stroke-miterlimit="10"/>
    <path d="M136.5 83.5c-3.39.31-11 2-13 4a4.38 4.38 0 0 0-1 3v5a18.26 18.26 0 0 0 13 3c8-1 16-6 16-6s0-6-1-7-1-2-5-2-6.76-.2-9 0z" fill="currentColor"/><path d="M125.7 86.16s-2.2 1.34-1.2 3.34 7 3 12 2a53.37 53.37 0 0 0 11-4s3.57-2.09 1.29-3.54-16.9-1.13-23.09 2.2z" stroke-width=".75" stroke="#000" stroke-linecap="round" stroke-linejoin="round" fill-opacity=".2" fill="#fff"/><path d="M125.7 86.16s-2.2 1.34-1.2 3.34 7 3 12 2a55.23 55.23 0 0 0 8.61-2.5c-1.11-2-8.42-5.89-8.42-5.89s-7.22 1.02-10.99 3.05z" fill-opacity=".2" fill="#fff"/><path d="M136.5 83.5c-3.39.31-11 2-13 4a4.38 4.38 0 0 0-1 3v5a18.26 18.26 0 0 0 13 3c8-1 16-6 16-6s0-6-1-7-1-2-5-2-6.76-.2-9 0z" fill="none" stroke="#000" stroke-linecap="round" stroke-linejoin="round"/><path d="M134.5 73.5s-5 1-5 6 1 7 1 7a18.58 18.58 0 0 0 8 0c4-1 5-3 5-3s-1-10-9-10z" fill="#ec1c24" stroke="#000" stroke-linecap="round" stroke-linejoin="round"/><path d="M139.5 75.5s2 3 1 6-6 5-6 5 8-1 9-3-3-7-4-8z" fill-opacity=".1"/><path d="M134.5 73.5s-5 1-5 6 1 7 1 7a18.58 18.58 0 0 0 8 0c4-1 5-3 5-3s-1-10-9-10z" fill="none" stroke="#000" stroke-linecap="round" stroke-linejoin="round"/><path d="M144.5 88.5c1 1 0 7.3 0 7.3l7-3.3s0-6.14-1.5-7.57c-2 3.07-3 3.07-5.5 3.57z" fill-opacity=".2"/><path d="M133.5 75.5a1 1 0 0 1 1 1c0 1 0 6-2 6s-3 0-2-4 3-3 3-3z" fill-opacity=".4" fill="#fff"/>
</g>
</svg>
