
<svg viewBox="0 0 300 300" width="60" height="60" xmlns="http://www.w3.org/2000/svg" xmlns:xlink="http://www.w3.org/2000/xlink">                
<g style="color:#9B50E6">
    <rect fill="#69059B" x="0" y="0" width="320" height="320"></rect>
    <g fill="currentColor"><path d="M106 247.52s-34.47 3-50.47 32c0 0-5 9-6 23h27s.9-29.98 29.47-55z"/><path d="M226.5 236.5s-6-10-26-12-56-2-81 13-43 44-43 65h115s3-31 22-53c0 0 8.88-7.45 14.44-9.22 0 0 .56-.78-1.44-3.78z"/><path d="M286.5 302.5s4-50-16-59-44-8-57 6-22 43-22 53z"/></g><path d="M91.18 264s5.32.48 3.32 9.48-5 7-7 17-2.5 12-2.5 12h-8.5s-.65-16.94 14.68-38.48z" fill="#fff" fill-opacity=".4"/><path d="M286.5 302.5s4-50-16-59-44-8-57 6-22 43-22 53z" stroke-width="1.2" stroke="#000" stroke-miterlimit="10" fill="none"/><path d="M268.5 247.5s-8 8-11 26-2.25 29-2.25 29h31.25s3.84-41.79-12.58-56.9c0 0-2.42-1.1-5.42 1.9z" fill-opacity=".2" stroke="#000" stroke-miterlimit="10"/><path d="M226.5 236.5s-6-10-26-12-56-2-81 13-43 44-43 65h115s3-31 22-53c0 0 8.88-7.45 14.44-9.22 0 0 .56-.78-1.44-3.78z" stroke-width="1.25" stroke="#000" stroke-miterlimit="10" fill="none"/><path d="M218.22 229.55s-18.72.95-31.72 20.95-17 37-17.5 52h22.5c-1.42.12 8.08-36.84 16-45.5 10-15.5 21-16.5 21-16.5s.43-4.9-10.28-10.95z" stroke-width=".75" fill-opacity=".2" stroke="#000" stroke-miterlimit="10"/><path d="M106 247.52s-34.47 3-50.47 32c0 0-5 9-6 23h27s.9-29.98 29.47-55z" stroke="#000" stroke-miterlimit="10" fill="none"/><path d="M80.61 255.48s2.89 2-6.11 12a94 94 0 0 0-17 26c-3 7-1.75 9-1.75 9H49.5s1.23-32.01 31.11-47z" fill="#fff" fill-opacity=".4"/><path d="M106 247.52s-34.47 3-50.47 32c0 0-5 9-6 23h27s.9-29.98 29.47-55z" stroke-width="1.2" stroke="#000" stroke-miterlimit="10" fill="none"/><path d="M153.5 251.5c7.6-.12 26-2 27-14s-27-8-27-8-22 1-22 11 15.85 11.1 22 11z" stroke="#000" stroke-miterlimit="10" fill="none"/><path d="M138.5 166.5s12 33 4 72c0 0 1 6 12 5s12-5 12-5 6-37-10-75c0 0-11 3-18 3z" fill="#6d6e70" stroke="#000" stroke-miterlimit="10"/><path d="M161 176a15.59 15.59 0 0 1-7.53 3.51c-5 1-9 1-11.52 0M163.66 185.38c-1.18 2.51-2.36 7.71-20 5.42M166.32 200.74s-4.63 7.77-21.23 3.27M167.42 213.41s-3.73 9.13-22.33 4.11M167.42 227.17s-7.75 9.36-23.34 1.85" stroke="#000" stroke-miterlimit="10" fill="none"/><circle cx="154.5" cy="247.5" r="1.5"/><circle cx="166.5" cy="244.5" r="1.5"/><circle cx="174.5" cy="237.5" r="1.5"/><circle cx="168.5" cy="232.5" r="1.5"/><circle cx="142.5" cy="245.5" r="1.5"/><circle cx="137.5" cy="240.5" r="1.5"/><path d="M150.5 164.5s10.5 29.5 11 45a328.75 328.75 0 0 1-1 33l6-3c3.29-1.87.5-61.5-10-76z" fill-opacity=".2"/>
    <path d="M147 88c-20.15-.5-56.5 14.5-56.5 57.5 0 0 1 22 6 41s10 34 10 37c0 0 3 12 25 11s62-15 62-15-2-31-3-49S196.79 89.24 147 88z" fill="currentColor"/><path d="M147 88c-20.15-.5-56.5 14.5-56.5 57.5 0 0 1 22 6 41s10 34 10 37c0 0 3 12 25 11s62-15 62-15-2-31-3-49S196.79 89.24 147 88z" fill="none" stroke="#000" stroke-linecap="round" stroke-linejoin="round"/><path d="M147 87c-20.15-.5-56.5 14.5-56.5 57.5 0 0 1 22 6 41s10 34 10 37c0 0 3 12 25 11s62-15 62-15-2-31-3-49S196.79 88.24 147 87z" fill="none" stroke="#000" stroke-linecap="round" stroke-linejoin="round"/><path d="M135.5 96.5s36-4 45 43c0 0 3 24 3 35s-1 25 1 36l2 11 7-2s-2.53-55.76-3.27-70.88S188.5 90.81 150 88.16c0 0-19.78-1-33.64 8.7 0 0-4.86 4.65.14 2.65s16-3.01 19-3.01z" fill-opacity=".2"/><path d="M122.5 104.5s-4 1-4 4 2 7 5 6 5-5 4-7-2-4-5-3zM115.5 111.5s-9-6-17 12-1 37-1 37 2 6 8 6 4-9 4-9-4-13-1-24 7-13 7-13 5-5 0-9z" fill="#fff" fill-opacity=".4"/><circle cx="111" cy="223" r="1.5"/><circle cx="125.5" cy="227.5" r="1.5"/><circle cx="141.5" cy="226.5" r="1.5"/><circle cx="159.5" cy="223.5" r="1.5"/><circle cx="175.5" cy="219.5" r="1.5"/><circle cx="188.5" cy="214.5" r="1.5"/>
    <g fill="currentColor"><path d="M112.71 130h-.49c-2.46 0-13.35.38-14.22 11-1 12 8.33 13.5 12.26 13.5s12.75-3 12.75-13c-.01-11-10.3-11.5-10.3-11.5zM156.71 130h-.49c-2.46 0-13.35.38-14.22 11-1 12 8.33 13.5 12.26 13.5s12.75-3 12.75-13c-.01-11-10.3-11.5-10.3-11.5z"/></g><path d="M112.71 130h-.49c-2.46 0-13.35.38-14.22 11-1 12 8.33 13.5 12.26 13.5s12.75-3 12.75-13c-.01-11-10.3-11.5-10.3-11.5z" stroke="#000" fill-opacity=".55" stroke-miterlimit="10" stroke-width=".75"/><path d="M111.23 130.5s-9.8 1-9.8 10 4.9 11 10.78 11a11 11 0 0 0 10.78-11c.01-6-5.87-10-11.76-10z" fill="#461917" stroke-linecap="round" stroke-linejoin="round" stroke-width=".5" stroke="#000"/><ellipse cx="112.22" cy="140.5" rx="1.96" ry="3" fill="#ec1c24"/><path d="M156.71 130h-.49c-2.46 0-13.35.38-14.22 11-1 12 8.33 13.5 12.26 13.5s12.75-3 12.75-13c-.01-11-10.3-11.5-10.3-11.5z" stroke="#000" fill-opacity=".55" stroke-miterlimit="10" stroke-width=".75"/><path d="M155.23 130.5s-9.8 1-9.8 10 4.9 11 10.78 11a11 11 0 0 0 10.78-11c.01-6-5.87-10-11.76-10z" fill="#461917" stroke-linecap="round" stroke-linejoin="round" stroke-width=".5" stroke="#000"/><ellipse cx="156.22" cy="140.5" rx="1.96" ry="3" fill="#ec1c24"/>
    <path d="M130.5 175.5v15a73.09 73.09 0 0 0 1 13s6 1 6 0-1-28-1-28c-2.32-.12-5.22-.44-6 0z" fill="currentColor"/><path d="M130.5 175.5v15a73.09 73.09 0 0 0 1 13s6 1 6 0-1-28-1-28c-2.32-.12-5.22-.44-6 0z" stroke="#000" stroke-linecap="round" stroke-linejoin="round" fill="none"/><path d="M131.65 203a75.68 75.68 0 0 1-1.4-15.06 102.33 102.33 0 0 1 .48-12.27 3 3 0 0 1 1.25-.25 5.33 5.33 0 0 1 1 .1l.43.2s0 .16-.13.72a138.49 138.49 0 0 0-1 14.06 64.14 64.14 0 0 0 1 10.92z" opacity=".4"/><path d="M132 175.67a5 5 0 0 1 .87.08l.25.11a3.34 3.34 0 0 1-.09.52v.05a139.54 139.54 0 0 0-1 14.06 64.67 64.67 0 0 0 1 10.83l-1.16 1.16a77 77 0 0 1-1.3-14.56 107.4 107.4 0 0 1 .46-12.1 2.85 2.85 0 0 1 1-.17m0-.5a3.13 3.13 0 0 0-1.48.33s-.5 3-.5 12.44a72 72 0 0 0 1.5 15.56l2-2a62.68 62.68 0 0 1-1-11 138 138 0 0 1 1-14c.13-.56.15-.92 0-1l-.5-.23a5.57 5.57 0 0 0-1-.1z"/><path d="M137.19 201.56a5.59 5.59 0 0 0-2.48-.65 3.64 3.64 0 0 0-1.34.25 39.16 39.16 0 0 1-1.12-9c0-4.56 1.26-14.93 1.47-16.62l2.54.17.56 15.47z" fill="#461917"/><path d="M133.94 175.83l2.06.17.56 15.25.35 9.94a5.61 5.61 0 0 0-2.21-.5 4 4 0 0 0-1.17.17 39 39 0 0 1-1-8.64c0-4.37 1.16-14.11 1.44-16.36m-.44-.53s-1.5 11.86-1.5 16.89a38.68 38.68 0 0 0 1.2 9.31 3.33 3.33 0 0 1 1.51-.35 5.56 5.56 0 0 1 2.74.85l-.38-10.8-.57-15.7-3-.2z"/><path d="M137.5 201.5v2h-5.7l1.7-2s1-2 4 0z" fill-opacity=".4" stroke-width=".75" stroke="#000" stroke-linecap="round" stroke-linejoin="round"/>
    <path d="M122.5 94.5s4 3 13 3 16-6 16-6a26.39 26.39 0 0 0-1-7c-1-3-10.49-2.87-15.74-1.93s-11.26.93-12.26 3.93z" fill="currentColor"/><ellipse cx="133" cy="26" rx="7.5" ry="6.5" stroke-miterlimit="10" stroke="#000" fill="#be1e2d"/><path d="M140 25c.19.68-5.51 8.12-11.57 6.27a8.65 8.65 0 0 0 7.91.53C141 30 140 25 140 25z" fill="#561317"/><ellipse cx="130.22" cy="22.93" rx="4.46" ry="2.23" transform="matrix(.87 -.5 .5 .87 5.98 68.18)" fill="#ed293b"/><ellipse cx="133" cy="26" rx="7.5" ry="6.5" stroke-width=".75" fill="none" stroke-miterlimit="10" stroke="#000"/><path d="M135.5 82.5s-13 1-13 4 9 4 13 4 15-2 15-6-15-2-15-2z" stroke-linecap="round" stroke-linejoin="round" fill-opacity=".2" fill="#fff" stroke-width=".75" stroke="#000"/><path d="M122.5 94.5s4 3 13 3 16-6 16-6a26.39 26.39 0 0 0-1-7c-1-3-10.49-2.87-15.74-1.93s-11.26.93-12.26 3.93z" stroke-linecap="round" stroke-linejoin="round" fill="none" stroke="#000"/><path d="M148.19 93.77c.31-1.27-.69-6.27-.69-6.27s-7.41-2.59-8.2-2.3 1.86-.8 2-1.75.23-1.43.23-1.43 3.12 0 5.53.25 3.41 1.47 3.41 2.35l.64 2.58.36 4.29-3 2" fill-opacity=".2"/><path d="M133 29.24s-7.5 13.21-6.5 28.88a245.78 245.78 0 0 0 3 26.43s0 2 4 2a14 14 0 0 0 7-2 3.4 3.4 0 0 0 1-2c0-1-11-18.6-8-48.94 0 .03 1-5.84-.5-4.37z" fill="#e6e7e8" stroke-miterlimit="10" stroke="#000"/><path d="M130.5 46.5a94.41 94.41 0 0 0 2 18 145.29 145.29 0 0 0 6 19l.52 1.8s2.48-.8 2.48-2.8c0 0-6.45-14.41-7.23-22.71s-1.77-20.29-.77-26.29c0 0-.08-3.33.21-2.91S130 38 130.5 46.5z" fill="#d0d2d3"/><path d="M133 29.24s-7.5 13.21-6.5 28.88a245.78 245.78 0 0 0 3 26.43s0 2 4 2a14 14 0 0 0 7-2 3.4 3.4 0 0 0 1-2c0-1-11-18.6-8-48.94 0 .03 1-5.84-.5-4.37z" fill="none" stroke-miterlimit="10" stroke="#000"/><path d="M126 46s-9 1-9 6 10 5 13 5 12-1 12-6-8-5-8-5" stroke-linecap="round" stroke-linejoin="round" fill="none" stroke="#000"/>
</g>
</svg>
