
<svg viewBox="0 0 300 300" width="60" height="60" xmlns="http://www.w3.org/2000/svg" xmlns:xlink="http://www.w3.org/2000/xlink">                
<g style="color:#8282E6">
    <rect fill="#50821E" x="0" y="0" width="320" height="320"></rect>
    <path d="M148.46 242.82s-35 5.68-33 23.68c0 0-1 7 9 20s13 20 13 20l51-2s1-7 9-18 11-13 11-24-13.09-25.36-60-19.68" fill="currentColor"/><path d="M148.46 242.82s-35 5.68-33 23.68c0 0-1 7 9 20s13 20 13 20l51-2s1-7 9-18 11-13 11-24-13.09-25.36-60-19.68" stroke="#000" stroke-miterlimit="10" fill="none"/><path d="M131.83 247.83s-6.33 4.67-7.33 12.67c0 0-3 7 4 14s13 18 14 25-7.56 2.2-7.56 2.2-5.72-8.89-11.08-16-10.81-14.18-7.58-25.17c0-.04 1.89-6.36 15.55-12.7z" fill="#fff" fill-opacity=".4"/><circle cx="155.5" cy="267.5" r="1"/><circle cx="144" cy="268" r="1"/><circle cx="132" cy="270" r="1"/><circle cx="122" cy="274" r="1"/><circle cx="170" cy="267" r="1"/><circle cx="183" cy="270" r="1"/><circle cx="194" cy="275" r="1"/><path d="M193.33 245.17s-1.83 5.33 1.17 8.33 4 4 2 8a21.05 21.05 0 0 0-3.72 4c-1.28 2 .72 4-1.28 9s-15 28-15 28l12.74-.81s-.74-2.19 8.26-15.19 13-17.33 10-29.17c0 0-3.33-7.5-14.17-12.16z" fill-opacity=".2"/><path d="M116.5 272.83s-2-6.33 6-8.33 19-5 40-5 41 6 40 18a10 10 0 0 1-2.17 5" stroke="#000" stroke-miterlimit="10" fill="none"/><path d="M166.5 205.5h-14a12.13 12.13 0 0 0-5 1l1 38s0 11 10 11 11-9 11-9-3-17-3-27z" fill="#6d6e70" stroke="#000" stroke-miterlimit="10"/><path d="M166 212.5s-2.06 3-9.25 3-9.25-1.5-9.25-1.5M166 224.5s-2.06 3-9.25 3-9.25-1.5-9.25-1.5M167 238.5s-2.06 3-9.25 3-9.25-1.5-9.25-1.5" stroke="#000" stroke-miterlimit="10" fill="none"/><path d="M159.17 205.5s-.67 9 1.33 15 4 15 3 21-1 12.74-3 13.87 8-.87 9-8.87a168.89 168.89 0 0 1-3-28.92V205.5z" fill-opacity=".2"/><path d="M197.5 286.5s12 3 14 13 16 4 16 4 4-1-2-15a31.19 31.19 0 0 0-18.31-17.5 29.16 29.16 0 0 1-5.19 9.56 32.56 32.56 0 0 0-4.5 5.94z" fill="#6d6e70" stroke="#000" stroke-miterlimit="10"/><path d="M219.5 279.5s-11.86 4.53-11.93 12.76M228.5 296.5a15.7 15.7 0 0 0-17 4" stroke="#000" stroke-miterlimit="10" fill="none"/><path d="M224 304.64l4.82-4.14s-2.14-16.5-11-23-10.33-6-10.33-6l-3.27 6s18.25 9.27 19.78 27.14z" fill-opacity=".2"/><path d="M117.31 275.57s-13.81 6.93-16.81 25.93 17 0 17 0 1.85-8.67 8.92-12.34c0 0-8.29-10.52-9.11-13.59z" fill="#6d6e70" stroke="#000" stroke-miterlimit="10"/><path d="M109 283s7.48 11.61 11.58 11.55M102 296s6.9 7.76 11.5 6.47" stroke="#000" stroke-miterlimit="10" fill="none"/><path d="M119.5 283.5s-13 7-12 21 10.64-5.12 10.64-5.12 6.36-8.88 8.36-9.88l-5.5-7z" fill-opacity=".2"/>
    <path d="M212.5 90.5s-19.5-20.5-55-12c-31 8-61 14-64 60a122.71 122.71 0 0 0 4 35c5 19 11 42 12 45 0 0 8 9 25 9s56-10 56-10 11-5 12-6-20-60-11-86c0 0 3-7 14-8s14 0 14 0-2-21-7-27z" fill="currentColor"/><path d="M130.5 88.5s-9 6-12 9-16 15-18 28 2 38 4 46 5 21 4 26-2.93 6.66-2.93 6.66-6.07-20.66-8.07-30.66-6-27-1.52-51 34.52-37 34.52-34z" fill="#fff" fill-opacity=".4"/><path d="M212.5 90.5s-18.25-20.21-55-12c-31.25 7-61 14-64 60a122.71 122.71 0 0 0 4 35c5 19 11 42 12 45 0 0 8 9 25 9s56-10 56-10 11-5 12-6-20-60-11-86c0 0 3-7 14-8s14 0 14 0-2-21-7-27z" stroke="#000" stroke-linecap="round" stroke-linejoin="round" fill="none"/><path d="M212.5 89.5s-18-19-55-12c-31.23 7.06-61 14-64 60a122.71 122.71 0 0 0 4 35c5 19 11 42 12 45 0 0 8 9 25 9s56-10 56-10 11-5 12-6-20-60-11-86c0 0 3-7 14-8s14 0 14 0-2-21-7-27z" stroke="#000" stroke-linecap="round" stroke-linejoin="round" fill="none"/><path d="M209.5 92.5s-15 0-21 6-16 16-13 41 12 65 12 65l3 13 12-6s-22.77-76.47-7.39-90.23c0 0 2.39-4.77 24.39-3.77 0 0-.4-21-5.7-25z" fill-opacity=".2" stroke="#000" stroke-linecap="round" stroke-linejoin="round"/><circle cx="211" cy="103" r="1.5"/><circle cx="195.5" cy="207.5" r="1.5"/><circle cx="182.5" cy="213.5" r="1.5"/><circle cx="165.5" cy="217.5" r="1.5"/><circle cx="146.5" cy="220.5" r="1.5"/><circle cx="129.5" cy="220.5" r="1.5"/><circle cx="114.5" cy="216.5" r="1.5"/>
    <path d="M110 135s-1.5 6.5.5 6.5h45v-6s0-2-3-2h-38c-3 0-4 0-4.5 1.5z" fill="currentColor"/><path d="M110 135s-1.5 6.5.5 6.5h45v-6s0-2-3-2h-38c-3 0-4 0-4.5 1.5z" stroke="#000" fill-opacity=".4" stroke-miterlimit="10"/><path d="M110.83 133.88a25.17 25.17 0 0 0 2.67 4.62c1 1 5 0 9 0h31s2-.12 2 .94v-3.94s0-2-3-2h-39.19z" stroke-width=".5" fill="#461917" stroke-linecap="round" stroke-linejoin="round" stroke="#000"/><path stroke-width=".75" fill="#461917" stroke-linecap="round" stroke-linejoin="round" stroke="#000" d="M113.5 138.5l-3.6 2.71"/>
    <path d="M148 175s-6.5.5-12.5 1.5a83.3 83.3 0 0 1-12 1v14c0 2 3 13 13 12s13-7 13-11-1-17-1-17 0-1-.5-.5z" fill="currentColor"/><path d="M148 175s-6.5.5-12.5 1.5a83.3 83.3 0 0 1-12 1v14c0 2 3 13 13 12s13-7 13-11-1-17-1-17 0-1-.5-.5z" stroke="#000" stroke-miterlimit="10" fill-opacity=".4"/><path d="M129.59 177.21L130 191s1 7 7 8 12-.83 12.5-4.92-1-19.58-1-19.58l-10.88 1.67c-2.12.33-8.03 1.04-8.03 1.04z" fill="#f6921e" stroke="#000" stroke-miterlimit="10"/><path d="M137.25 176.19l.22 22.88s-7-.57-7.39-7.64c-.58-4.93-.58-13.93-.58-13.93z" fill="#f9ec31" stroke-width=".75" stroke="#000" stroke-miterlimit="10"/><path d="M129.59 177.21L130 191s1 7 7 8 12-.83 12.5-4.92-1-19.58-1-19.58l-10.88 1.67c-2.12.33-8.03 1.04-8.03 1.04z" fill="none" stroke="#000" stroke-miterlimit="10"/>
    <path d="M122.5 94.5s4 3 13 3 16-6 16-6a26.39 26.39 0 0 0-1-7c-1-3-10.49-2.87-15.74-1.93s-11.26.93-12.26 3.93z" fill="currentColor"/><ellipse cx="133" cy="26" rx="7.5" ry="6.5" stroke-miterlimit="10" stroke="#000" fill="#be1e2d"/><path d="M140 25c.19.68-5.51 8.12-11.57 6.27a8.65 8.65 0 0 0 7.91.53C141 30 140 25 140 25z" fill="#561317"/><ellipse cx="130.22" cy="22.93" rx="4.46" ry="2.23" transform="matrix(.87 -.5 .5 .87 5.98 68.18)" fill="#ed293b"/><ellipse cx="133" cy="26" rx="7.5" ry="6.5" stroke-width=".75" fill="none" stroke-miterlimit="10" stroke="#000"/><path d="M135.5 82.5s-13 1-13 4 9 4 13 4 15-2 15-6-15-2-15-2z" stroke-linecap="round" stroke-linejoin="round" fill-opacity=".2" fill="#fff" stroke-width=".75" stroke="#000"/><path d="M122.5 94.5s4 3 13 3 16-6 16-6a26.39 26.39 0 0 0-1-7c-1-3-10.49-2.87-15.74-1.93s-11.26.93-12.26 3.93z" stroke-linecap="round" stroke-linejoin="round" fill="none" stroke="#000"/><path d="M148.19 93.77c.31-1.27-.69-6.27-.69-6.27s-7.41-2.59-8.2-2.3 1.86-.8 2-1.75.23-1.43.23-1.43 3.12 0 5.53.25 3.41 1.47 3.41 2.35l.64 2.58.36 4.29-3 2" fill-opacity=".2"/><path d="M133 29.24s-7.5 13.21-6.5 28.88a245.78 245.78 0 0 0 3 26.43s0 2 4 2a14 14 0 0 0 7-2 3.4 3.4 0 0 0 1-2c0-1-11-18.6-8-48.94 0 .03 1-5.84-.5-4.37z" fill="#e6e7e8" stroke-miterlimit="10" stroke="#000"/><path d="M130.5 46.5a94.41 94.41 0 0 0 2 18 145.29 145.29 0 0 0 6 19l.52 1.8s2.48-.8 2.48-2.8c0 0-6.45-14.41-7.23-22.71s-1.77-20.29-.77-26.29c0 0-.08-3.33.21-2.91S130 38 130.5 46.5z" fill="#d0d2d3"/><path d="M133 29.24s-7.5 13.21-6.5 28.88a245.78 245.78 0 0 0 3 26.43s0 2 4 2a14 14 0 0 0 7-2 3.4 3.4 0 0 0 1-2c0-1-11-18.6-8-48.94 0 .03 1-5.84-.5-4.37z" fill="none" stroke-miterlimit="10" stroke="#000"/><path d="M126 46s-9 1-9 6 10 5 13 5 12-1 12-6-8-5-8-5" stroke-linecap="round" stroke-linejoin="round" fill="none" stroke="#000"/>
</g>
</svg>
