
<svg viewBox="0 0 300 300" width="60" height="60" xmlns="http://www.w3.org/2000/svg" xmlns:xlink="http://www.w3.org/2000/xlink">                
<g style="color:#9B5082">
    <rect fill="#E6B4E6" x="0" y="0" width="320" height="320"></rect>
    <g fill="currentColor"><path d="M222.5 301.5s-10-35 11-53 58-15 70 2 2 51 2 51zM83.5 254.5s-6 28 67 26 77-30 76-36-12.3-10.12-26-13c0 5 1 22 1 22s-8 13-46 17c-29 1-45-9-45-9s-1.5-16-2.5-23.13c-11.5 3.38-22.5 9.13-24.5 16.13z"/><path d="M110.5 261.5s20 11 44 9 36-7 47-17l-1-24a10.53 10.53 0 0 1-.31 4.41c-.69 1.59-4.63 16.78-42.16 19.68s-47-4.1-50-16.1z"/><path d="M83.5 250H227v58.5H83.5z"/><path d="M87.5 247.5s-19-10-37-5-29 20-32 37c-1 11 1 16 3 20h64s2-5 0-16-3-23-2-29 4-7 4-7zM108 237s-1 20 45 17 48.5-20.5 47.5-24.5c-.91-3.63-13.68-10.56-39-9.56 0 .56.26 3.3.26 3.3 1.74 9.26.74 15.26-9.26 16.26-3.41.33-10-5-10-5s-1-8-1-13c-21.12 3.09-33.09 8.5-33.5 15.5z"/></g><path d="M108 237s-1 20 45 17 48.5-20.5 47.5-24.5c-.91-3.63-13.68-10.56-39-9.56 0 .56.26 3.3.26 3.3 1.74 9.26.74 15.26-9.26 16.26-3.41.33-10-5-10-5s-1-8-1-13c-21.12 3.09-33.09 8.5-33.5 15.5z" stroke-miterlimit="10" stroke="#000" fill-opacity=".6"/><path d="M110.5 261.5s20 11 44 9 36-7 47-17l-1-24a10.53 10.53 0 0 1-.31 4.41c-.69 1.59-4.63 16.78-42.16 19.68s-47-4.1-50-16.1z" stroke-linecap="round" stroke-linejoin="round" fill="none" stroke="#000"/><path d="M193.37 260.15c-6.66 3.83-18.28 8.29-37.87 10.35-29 1-45-9-45-9s-1.5-16-2.5-23.13c-11.5 3.38-22.5 9.13-24.5 16.13 0 0-6 28 67 26 29.58-.81 47.84-5.89 59-12" fill-opacity=".2" fill="#fff"/><path d="M83.5 254.5s-6 28 67 26c29.58-.81 47.84-5.89 59-12-5.5-2.5-10.5-5.5-16.13-8.35-6.66 3.83-18.28 8.29-37.87 10.35-29 1-45-9-45-9s-1.5-16-2.5-23.13c-11.5 3.38-22.5 9.13-24.5 16.13z" fill-opacity=".1" fill="#fff"/><path d="M141.5 190.5v29a142.25 142.25 0 0 0 1 15 9.78 9.78 0 0 0 10 5c7-1 11-4 10-11-.36-2.54-.73-5-1-7.56a138.9 138.9 0 0 1-1-17.44v-14a69.37 69.37 0 0 0-19 1z" fill="#6d6e70" stroke-miterlimit="10" stroke="#000"/><path d="M152.5 190.5s0 7 2 12a55.9 55.9 0 0 1 3.13 17.34c-.12 3.66.88 15.66-3.12 17.66s-2 2-2 2 7-1.57 8.48-3.79 1.94-3.24 1.23-9.23a177.33 177.33 0 0 1-1.71-24.86V189.5a37.46 37.46 0 0 0-6.17-.25l-1.83.25z" fill="#58595b"/><path d="M141.5 190.5v29a142.25 142.25 0 0 0 1 15 9.78 9.78 0 0 0 10 5c7-1 11-4 10-11-.36-2.54-.73-5-1-7.56a138.9 138.9 0 0 1-1-17.44v-14a69.37 69.37 0 0 0-19 1z" fill="none" stroke-miterlimit="10" stroke="#000"/><path d="M161.25 222.25s-2.67 3.25-9.51 3.25-10.13-2-10.13-2M160 208.5s-3 3-9.06 3S142 210 142 210M160 197.5s-2 2-8.06 2a86.48 86.48 0 0 1-9.94-.5" stroke-linecap="round" stroke-linejoin="round" fill="none" stroke="#000"/><path d="M188 246.51l1.52 15.49s6.63-4 9.06-6l2.42-2s.72.24.36-3.88-.79-17.93-.79-17.93S200 240 188 246.51z" fill-opacity=".4"/><path d="M84 273.63S97 277 97 285s-1 9 0 14 0 4 0 4H84s3.32-3 2.41-11.26S85 279.5 85 279.5z" fill-opacity=".5" fill="#fff"/><path d="M87.5 247.5s-19-10-37-5-29 20-32 37c-1 11 1 16 3 20h64s2-5 0-16-3-23-2-29 4-7 4-7z" fill="none" stroke-miterlimit="10" stroke="#000"/><path d="M87.5 247.5a63.65 63.65 0 0 0-25.06-6.39c7.06 2.39 3.06 8.39-8.94 13.39-11 6-23 10-27.5 32.5-.67 7.37.84 13.18 1.5 14.5l58-2s2-5 0-16-3-23-2-29 4-7 4-7z" fill-opacity=".4"/><path d="M33.5 299.5s-7-19-3-35a28.63 28.63 0 0 1 17-21.06" stroke-width=".75" fill="none" stroke-miterlimit="10" stroke="#000"/><path d="M62.44 241.12a3.46 3.46 0 0 1 3.06 3.38c0 3 0 4-10 9s-21.45 10-26.22 21-2.62 25-2.62 25H21.5l-3-20s8.88-37.77 43.94-38.38z" fill-opacity=".2" fill="#fff"/><path d="M84.26 275.62a31.64 31.64 0 0 1-3.76 14.88 19.71 19.71 0 0 1-11.14 8.83l16.14.17s1.42-2.62.71-10.81a90.57 90.57 0 0 0-1.95-13.07z" fill-opacity=".4"/><path d="M222.5 301.5s-10-35 11-53 58-15 70 2 2 51 2 51z" fill-opacity=".4" stroke-miterlimit="10" stroke="#000"/><path d="M292.5 241.5s-12-1-13 15c-1 14 4 41 7 45" stroke-width=".75" stroke-linecap="round" stroke-linejoin="round" fill="none" stroke="#000"/><path d="M226.5 244.5l.74 11a39.65 39.65 0 0 0-7.12 24.19c.38 14.81 2.38 21.81 2.38 21.81h-12s1-9 .5-14.5-1.49-18.55-1.49-18.55 17.99-8.95 16.99-23.95z" fill-opacity=".4"/><path d="M209.51 268.45s18-9 17-24l.74 11a39.65 39.65 0 0 0-7.12 24.19c.38 14.81 2.38 21.81 2.38 21.81h-12" fill="none" stroke-miterlimit="10" stroke="#000"/><path d="M293.9 242.19c-1.9-1.19 6.6 6.31 7.6 15.31s7.11 6.39 7.11 6.39-.11-8.39-5.11-13.39-7.69-7.12-9.6-8.31z" fill-opacity=".4"/><circle cx="154" cy="262" r="1.5"/><circle cx="170.5" cy="259.5" r="1.5"/><circle cx="183.5" cy="255.5" r="1.5"/><circle cx="194.5" cy="250.5" r="1.5"/><circle cx="138.5" cy="261.5" r="1.5"/><circle cx="125.5" cy="259.5" r="1.5"/><circle cx="115.5" cy="255.5" r="1.5"/><path d="M83.5 254.5s-6 28 67 26 77-30 76-36-12.3-10.12-26-13c0 5 1 22 1 22s-8 13-46 17c-29 1-45-9-45-9s-1.5-16-2.5-23.13c-11.5 3.38-22.5 9.13-24.5 16.13z" fill="none" stroke-miterlimit="10" stroke="#000"/>
    <path d="M156 83s-55 5-66 53 9.5 66.5 9.5 66.5 9 8 12 8 2-2 1-4a7.47 7.47 0 0 0-3-3s4 1 5 10 1 32 1 38v12s2 8 17 8 30-7 30-7-4-34-2-41 9-20 15-26 3-1 0 2a50.18 50.18 0 0 0-6 8s17-7 23-14 15-10 16-33 6-79-52.5-77.5z" fill="currentColor"/><path d="M156 83s-55 5-66 53 9.5 66.5 9.5 66.5 9 8 12 8 2-2 1-4a7.47 7.47 0 0 0-3-3s4 1 5 10 1 32 1 38v12s2 8 17 8 30-7 30-7-4-34-2-41 9-20 15-26 3-1 0 2a50.18 50.18 0 0 0-6 8s17-7 23-14 15-10 16-33 6-79-52.5-77.5z" fill="none" stroke="#000" stroke-linecap="round" stroke-linejoin="round"/><path d="M156 82s-55 5-66 53 9.5 66.5 9.5 66.5 9 8 12 8 2-2 1-4a7.47 7.47 0 0 0-3-3s4 1 5 10 1 32 1 38v12s2 8 17 8 30-7 30-7-4-34-2-41 9-20 15-26 3-1 0 2a50.18 50.18 0 0 0-6 8s17-7 23-14 15-10 16-33 6-79-52.5-77.5z" fill="none" stroke="#000" stroke-linecap="round" stroke-linejoin="round"/><path d="M181.5 93.5s18 16 16 44-6 41-28 54c0 0-16 3-19 28s0 49.27 0 49.27l12-4.27s-6.87-36.09.07-46.54 7.21-11.15 17.07-15.3 30.94-21.59 29.4-50.87-.09-56-35.32-67.16l-3.94-.77s-1.28.64 11.72 9.64z" fill-opacity=".2"/><path d="M110.5 117.5s-7 1-10 11-11 25-8 35 7 10 9 5 1-17 5-28 10-21 4-23zM122.5 99.5s-9 6-9 9 0 4 5 4 13-4 13-9-3-7-9-4z" fill="#fff" fill-opacity=".4"/>
    <g fill="currentColor"><path d="M110.5 122.5c-4 0-17 2-17 17s10 17 17 17 15-5 15-18-11-16-15-16z"/><path d="M153.5 121.5c-4 0-17.5 2.5-17.5 17.5s10.5 16.5 17.5 16.5 16-5 16-18c-2.5-15.5-12-16-16-16z"/></g><path d="M110.5 126.5s-13 0-13 12 10 13 13 13 12-2 12-14.52c0 .02-1-9.48-12-10.48z" stroke-width=".5" stroke="#000" stroke-linecap="round" stroke-linejoin="round" fill-opacity=".2"/><path d="M154.5 121.5s-20 0-19 18 19 16 19 16 16-2 15-17-11-17-15-17zM110.5 122.5c-4 0-17 2-17 17s10 17 17 17 15-5 15-18-11-16-15-16z" fill-opacity=".4" stroke="#000" stroke-linecap="round" stroke-linejoin="round"/><path d="M140.1 137.73s-2 13.2 12.18 13.2 14.22-10.15 14.22-13.2-3-12.18-12.18-12.18-14.22 7.1-14.22 12.18z" fill-opacity=".4" stroke-width=".5" stroke="#000" stroke-linecap="round" stroke-linejoin="round"/><path d="M109 127s-9 1-9 9 2.5 12.5 10.5 12.5 12-5 12-10-5-12-13.5-11.5zM154 126s-10.5.52-11 9.4 4 13.6 11 13.6 12-6.26 12-11.49-4.5-12-12-11.51z" fill="#461917" stroke-width=".5" stroke="#000" stroke-linecap="round" stroke-linejoin="round"/><path d="M110.26 134.06a.92.92 0 0 0-.24.05c-.36.13-1 .61-1 2.31 0 2.36 0 3.54 1.26 3.54s2.51 0 2.51-3.54c-.02-2.36-1.67-2.56-2.53-2.36zM154.26 134.06a.92.92 0 0 0-.24.05c-.36.13-1 .61-1 2.31 0 2.36 0 3.54 1.26 3.54s2.51 0 2.51-3.54c-.02-2.36-1.67-2.56-2.53-2.36z" fill="#faaf40"/>
    <path d="M109.5 197.5c0 4 1 5 1 5h34c10 0 21-1 21-1v-23l-1-4h-2c-2 0-54.5.5-54.5.5v11z" fill="currentColor"/><path d="M163.5 174.5v25s-52 1.5-53.75 1l.61 1.79 28.9.21s19.65-.79 21.7-.65A9 9 0 0 0 165 201l.41-22.84S164 174 163.5 174.5z" opacity=".4"/><path d="M109.5 197.5c0 4 1 5 1 5h34c10 0 21-1 21-1v-23l-1-4h-2c-2 0-54.5.5-54.5.5v11z" stroke-miterlimit="10" stroke="#000" fill="none"/><path d="M113.5 200.5h27c10 0 23-1 23-1v-24" stroke-width=".5" stroke-linecap="round" stroke-linejoin="round" stroke="#000" fill="none"/><path stroke-width=".5" stroke-miterlimit="10" stroke="#000" fill="none" d="M163.5 199.5l1.5 1.5"/><path d="M162 177v12" stroke-width=".5" stroke-linecap="round" stroke-linejoin="round" stroke="#000" fill="none"/><path d="M112.5 177.5h27c9 0 20-1 20-1v20l-54 1a34.21 34.21 0 0 1 2-11 44.27 44.27 0 0 1 5-9z" fill="#f6921e" stroke-width="1.2" stroke-linecap="round" stroke-linejoin="round" stroke="#000"/><path d="M159 176.5s-3 7.5-4 11.5a87 87 0 0 0-1.59 8.61l-12.91.19s-1-2.3 1-7.3 5-12 5-12 11-.5 12.5-1zM128.5 196.89h-11a19.28 19.28 0 0 1 2-11.22c3-6.12 3.75-8.16 3.75-8.16h11.56s-1.31 3.06-2.31 6.12-4 6.12-4 10.2z" stroke-width=".75" fill="#f9ec31" stroke-miterlimit="10" stroke="#000"/><path d="M135.13 177.5h11.37l-5.43 13.25a8.08 8.08 0 0 0-.82 4c.25 1.89 0 2.25 0 2.25H128.5a23.82 23.82 0 0 1 .92-7.35c1.08-3.08 2.1-3 3.59-7.58s2.12-4.57 2.12-4.57z" fill="#f05a27" stroke-width=".75" stroke-linecap="round" stroke-linejoin="round" stroke="#000"/>
    <path d="M103.5 165.5s11-4 15-6a59.46 59.46 0 0 1 7-3s5 0 6 3 0 5-1 6-23 8-23 8a4.45 4.45 0 0 1-5-2c-3-5 1-6 1-6z" fill="currentColor"/><path d="M102 167c-1.07 1.3 1.29 6.38 2.64 6.19s6.07.81 4.36-4.12c-1.82-4.07-5.95-3.35-7-2.07z" fill="#fff" fill-opacity=".2"/><path d="M103.5 165.5s11-4 15-6a59.46 59.46 0 0 1 7-3s5 0 6 3 0 5-1 6-23 8-23 8a4.45 4.45 0 0 1-5-2c-3-5 1-6 1-6z" fill="none" stroke="#000" stroke-linecap="round" stroke-linejoin="round"/><path d="M106.5 173.5c3-1 3-3 2-5-3-4-6-2-6-2.24M109.1 163.4s4.4.1 5.4 3.1a5.22 5.22 0 0 1-.78 5" stroke-width=".75" fill="none" stroke="#000" stroke-linecap="round" stroke-linejoin="round"/><circle cx="128" cy="161" r="1"/>
</g>
</svg>
