
<svg viewBox="0 0 300 300" width="60" height="60" xmlns="http://www.w3.org/2000/svg" xmlns:xlink="http://www.w3.org/2000/xlink">                
<g style="color:#501E82">
    <rect fill="#509B37" x="0" y="0" width="320" height="320"></rect>
    <path d="M160.5 246.5s-14-3-27 13-22 45-22 45h108s-20-35-25-40-18-17-34-18z" fill="currentColor"/><path d="M121.5 303.5s5-24 10-33 3.28-8.07 7.64-8.53 15.13-1.22 23.75 2.66 8.18 3.25 8.18 3.25l13.12-12.15s-12.68-9.66-26.18-9.44-23.5 12.22-26.5 15.22-14.17 23.45-19.09 40.22z" fill-opacity=".2" fill="#fff"/><path d="M145.5 261.5s28 1 38 17 13 26 13 26h-86s13.77-34.15 18.39-38.57 15.61-4.43 16.61-4.43z" stroke="#000" stroke-miterlimit="10" fill="none"/><path d="M121.5 303.5s5-24 10-33 3.28-8.07 7.64-8.53c22.36-1.47 31.93 5.9 31.93 5.9l13.12-12.15s-12.68-9.66-26.18-9.44-23.5 12.22-26.5 15.22-14.17 23.45-19.09 40.22z" fill-opacity=".2" fill="#fff"/><path d="M160.5 246.5s-14-3-27 13-22 45-22 45h108s-20-35-25-40-18-17-34-18z" stroke="#000" stroke-miterlimit="10" fill="none"/><path d="M149 192s1 62 2 64a11.16 11.16 0 0 0 9.06 3.21c5.44-.71 6.44-2.71 6.94-5.21 0 0-2.5-48.5-2.5-62.5z" fill="#6d6e70" stroke="#000" stroke-miterlimit="10"/><path d="M159.5 191.5s3 36 3 40 1 27 1 27l3-1-2-66z" opacity=".2"/><path d="M164.5 203.5a8.76 8.76 0 0 1-6 2c-4 0-8 0-9-1M165.5 214.5a12.68 12.68 0 0 1-6 2c-3 0-7 .25-10-1.37M165.8 225.5a10.11 10.11 0 0 1-6.3 2c-4 0-7.65-.2-9.82-2.1M166 234.5s-.5 3-5.5 3a64.39 64.39 0 0 1-10.3-1M166.5 245.5s-1 3-6 3a21.51 21.51 0 0 1-10-2" stroke="#000" stroke-miterlimit="10" fill="none"/><path d="M195.58 301.91H218s-15-26.13-19.27-31.77-12.23-13.64-14.23-14.64l-13 12s8 4.69 10.48 8.84 10.68 16.98 13.6 25.57z" fill-opacity=".2"/><path d="M193.5 272.5a6.85 6.85 0 0 0-2 8c2 5 8 6 8 6s7-6 15-2 9 7 9 15 14 3 14 3l2-2s4-21-19-31c0 0-11-4-27 3z" fill="#6d6e70" stroke="#000" stroke-miterlimit="10"/><path d="M196.5 284.5a25.68 25.68 0 0 1 18-5c11 1 16 9 18 17s-4 10-4 10l-5-7s.05-13.88-10-15.44-14 2.44-14 2.44-4 0-3-2z" fill-opacity=".2"/><path d="M206 268.82a2.89 2.89 0 0 0-1.5 2.68c0 2 .1 8.87 7 11.94M229.44 274.89s-3.94-1.39-5.94 1.61-3.62 9.25-2.81 12.13M223.56 300.34c-.06.16.94-2.84 5.94-2.84a21.66 21.66 0 0 1 10.09 2.37" stroke="#000" stroke-miterlimit="10" fill="none"/><path d="M127.07 268.36S108.5 263.5 98.5 279.5c0 0-5 9 1 20s7 4 7 4l7-5.25s-6-7.75-2-13.75c0 0 2.75-4.25 8.88-3.12z" fill="#6d6e70" stroke="#000" stroke-miterlimit="10"/><path d="M119.5 281.5s2-7 1-10a5.45 5.45 0 0 0-3.56-3.62M111.5 284.5a14.54 14.54 0 0 0-8-5c-5-1-5.44.94-5.44.94M111 293.56a10.89 10.89 0 0 0-7.48.94c-4 2-4 5-4 5" stroke="#000" stroke-miterlimit="10" fill="none"/><path d="M123.53 274.89s-7-2.39-13 .61-9 7-9 12 5 12 7 14 4.83-3.86 4.83-3.86-3.83-5.14-2.83-11.14c0 0 1-6 10-5z" fill-opacity=".2"/><circle cx="145" cy="266" r="1.5"/><circle cx="160.5" cy="268.5" r="1.5"/><circle cx="173.5" cy="274.5" r="1.5"/><circle cx="182.5" cy="285.5" r="1.5"/><circle cx="188.5" cy="296.5" r="1.5"/><circle cx="133.5" cy="266.5" r="1.5"/>
    <path d="M212.5 90.5s-19.5-20.5-55-12c-31 8-61 14-64 60a122.71 122.71 0 0 0 4 35c5 19 11 42 12 45 0 0 8 9 25 9s56-10 56-10 11-5 12-6-20-60-11-86c0 0 3-7 14-8s14 0 14 0-2-21-7-27z" fill="currentColor"/><path d="M130.5 88.5s-9 6-12 9-16 15-18 28 2 38 4 46 5 21 4 26-2.93 6.66-2.93 6.66-6.07-20.66-8.07-30.66-6-27-1.52-51 34.52-37 34.52-34z" fill="#fff" fill-opacity=".4"/><path d="M212.5 90.5s-18.25-20.21-55-12c-31.25 7-61 14-64 60a122.71 122.71 0 0 0 4 35c5 19 11 42 12 45 0 0 8 9 25 9s56-10 56-10 11-5 12-6-20-60-11-86c0 0 3-7 14-8s14 0 14 0-2-21-7-27z" stroke="#000" stroke-linecap="round" stroke-linejoin="round" fill="none"/><path d="M212.5 89.5s-18-19-55-12c-31.23 7.06-61 14-64 60a122.71 122.71 0 0 0 4 35c5 19 11 42 12 45 0 0 8 9 25 9s56-10 56-10 11-5 12-6-20-60-11-86c0 0 3-7 14-8s14 0 14 0-2-21-7-27z" stroke="#000" stroke-linecap="round" stroke-linejoin="round" fill="none"/><path d="M209.5 92.5s-15 0-21 6-16 16-13 41 12 65 12 65l3 13 12-6s-22.77-76.47-7.39-90.23c0 0 2.39-4.77 24.39-3.77 0 0-.4-21-5.7-25z" fill-opacity=".2" stroke="#000" stroke-linecap="round" stroke-linejoin="round"/><circle cx="211" cy="103" r="1.5"/><circle cx="195.5" cy="207.5" r="1.5"/><circle cx="182.5" cy="213.5" r="1.5"/><circle cx="165.5" cy="217.5" r="1.5"/><circle cx="146.5" cy="220.5" r="1.5"/><circle cx="129.5" cy="220.5" r="1.5"/><circle cx="114.5" cy="216.5" r="1.5"/>
    <g fill="currentColor"><path d="M144.5 141.5s5 9 9 7 13-9 13-9v-9s-2-1-7 0-14 5-14 5-3 2-1 6zM118 141l-5 10s-7.5-2.5-10.5-4.5-4-3-4-6l1-3a13.6 13.6 0 0 1 7 0c4 1 11 2 11 2s1 0 .5 1.5z"/></g><path d="M144.5 141.5s5 9 9 7 13-9 13-9v-9s-2-1-7 0-14 5-14 5-3 2-1 6z" stroke="#000" stroke-linecap="round" stroke-linejoin="round" fill-opacity=".4"/><path d="M144.5 139.5s2 2 6 1 10-6 12-7a18.66 18.66 0 0 0 4-3s-3.22-1-9.11.52a67.92 67.92 0 0 0-11.89 4.48s-3 2-1 4z" fill="#461917" stroke-width=".5" stroke="#000" stroke-linecap="round" stroke-linejoin="round"/><path d="M118 141l-5 10s-7.5-2.5-10.5-4.5-4-3-4-6l1-3a13.6 13.6 0 0 1 7 0 37.46 37.46 0 0 0 8 1s4 1 3.5 2.5z" stroke="#000" stroke-linecap="round" stroke-linejoin="round" fill-opacity=".4"/><path d="M100.5 139.5l6 3c2 1 9.7 2.6 11.35-1.2s-11.6-4.69-16-4.24c0 0-3-.17-2.67.94a2.3 2.3 0 0 0 1.32 1.5z" fill="#461917" stroke-width=".5" stroke="#000" stroke-linecap="round" stroke-linejoin="round"/>
    <path d="M130.5 175.5v15a73.09 73.09 0 0 0 1 13s6 1 6 0-1-28-1-28c-2.32-.12-5.22-.44-6 0z" fill="currentColor"/><path d="M130.5 175.5v15a73.09 73.09 0 0 0 1 13s6 1 6 0-1-28-1-28c-2.32-.12-5.22-.44-6 0z" stroke="#000" stroke-linecap="round" stroke-linejoin="round" fill="none"/><path d="M131.65 203a75.68 75.68 0 0 1-1.4-15.06 102.33 102.33 0 0 1 .48-12.27 3 3 0 0 1 1.25-.25 5.33 5.33 0 0 1 1 .1l.43.2s0 .16-.13.72a138.49 138.49 0 0 0-1 14.06 64.14 64.14 0 0 0 1 10.92z" opacity=".4"/><path d="M132 175.67a5 5 0 0 1 .87.08l.25.11a3.34 3.34 0 0 1-.09.52v.05a139.54 139.54 0 0 0-1 14.06 64.67 64.67 0 0 0 1 10.83l-1.16 1.16a77 77 0 0 1-1.3-14.56 107.4 107.4 0 0 1 .46-12.1 2.85 2.85 0 0 1 1-.17m0-.5a3.13 3.13 0 0 0-1.48.33s-.5 3-.5 12.44a72 72 0 0 0 1.5 15.56l2-2a62.68 62.68 0 0 1-1-11 138 138 0 0 1 1-14c.13-.56.15-.92 0-1l-.5-.23a5.57 5.57 0 0 0-1-.1z"/><path d="M137.19 201.56a5.59 5.59 0 0 0-2.48-.65 3.64 3.64 0 0 0-1.34.25 39.16 39.16 0 0 1-1.12-9c0-4.56 1.26-14.93 1.47-16.62l2.54.17.56 15.47z" fill="#461917"/><path d="M133.94 175.83l2.06.17.56 15.25.35 9.94a5.61 5.61 0 0 0-2.21-.5 4 4 0 0 0-1.17.17 39 39 0 0 1-1-8.64c0-4.37 1.16-14.11 1.44-16.36m-.44-.53s-1.5 11.86-1.5 16.89a38.68 38.68 0 0 0 1.2 9.31 3.33 3.33 0 0 1 1.51-.35 5.56 5.56 0 0 1 2.74.85l-.38-10.8-.57-15.7-3-.2z"/><path d="M137.5 201.5v2h-5.7l1.7-2s1-2 4 0z" fill-opacity=".4" stroke-width=".75" stroke="#000" stroke-linecap="round" stroke-linejoin="round"/>
    <path d="M122.5 94.5s4 3 13 3 16-6 16-6a26.39 26.39 0 0 0-1-7c-1-3-10.49-2.87-15.74-1.93s-11.26.93-12.26 3.93z" fill="currentColor"/><ellipse cx="133" cy="26" rx="7.5" ry="6.5" stroke-miterlimit="10" stroke="#000" fill="#be1e2d"/><path d="M140 25c.19.68-5.51 8.12-11.57 6.27a8.65 8.65 0 0 0 7.91.53C141 30 140 25 140 25z" fill="#561317"/><ellipse cx="130.22" cy="22.93" rx="4.46" ry="2.23" transform="matrix(.87 -.5 .5 .87 5.98 68.18)" fill="#ed293b"/><ellipse cx="133" cy="26" rx="7.5" ry="6.5" stroke-width=".75" fill="none" stroke-miterlimit="10" stroke="#000"/><path d="M135.5 82.5s-13 1-13 4 9 4 13 4 15-2 15-6-15-2-15-2z" stroke-linecap="round" stroke-linejoin="round" fill-opacity=".2" fill="#fff" stroke-width=".75" stroke="#000"/><path d="M122.5 94.5s4 3 13 3 16-6 16-6a26.39 26.39 0 0 0-1-7c-1-3-10.49-2.87-15.74-1.93s-11.26.93-12.26 3.93z" stroke-linecap="round" stroke-linejoin="round" fill="none" stroke="#000"/><path d="M148.19 93.77c.31-1.27-.69-6.27-.69-6.27s-7.41-2.59-8.2-2.3 1.86-.8 2-1.75.23-1.43.23-1.43 3.12 0 5.53.25 3.41 1.47 3.41 2.35l.64 2.58.36 4.29-3 2" fill-opacity=".2"/><path d="M133 29.24s-7.5 13.21-6.5 28.88a245.78 245.78 0 0 0 3 26.43s0 2 4 2a14 14 0 0 0 7-2 3.4 3.4 0 0 0 1-2c0-1-11-18.6-8-48.94 0 .03 1-5.84-.5-4.37z" fill="#e6e7e8" stroke-miterlimit="10" stroke="#000"/><path d="M130.5 46.5a94.41 94.41 0 0 0 2 18 145.29 145.29 0 0 0 6 19l.52 1.8s2.48-.8 2.48-2.8c0 0-6.45-14.41-7.23-22.71s-1.77-20.29-.77-26.29c0 0-.08-3.33.21-2.91S130 38 130.5 46.5z" fill="#d0d2d3"/><path d="M133 29.24s-7.5 13.21-6.5 28.88a245.78 245.78 0 0 0 3 26.43s0 2 4 2a14 14 0 0 0 7-2 3.4 3.4 0 0 0 1-2c0-1-11-18.6-8-48.94 0 .03 1-5.84-.5-4.37z" fill="none" stroke-miterlimit="10" stroke="#000"/><path d="M126 46s-9 1-9 6 10 5 13 5 12-1 12-6-8-5-8-5" stroke-linecap="round" stroke-linejoin="round" fill="none" stroke="#000"/>
</g>
</svg>
