
<svg viewBox="0 0 300 300" width="60" height="60" xmlns="http://www.w3.org/2000/svg" xmlns:xlink="http://www.w3.org/2000/xlink">                
<g style="color:#6937B4">
    <rect fill="#CD50B4" x="0" y="0" width="320" height="320"></rect>
    <path d="M145.5 301.5s-1-18-1-23c0 0 .37-3.41 15.68-2.2s10.15-.26 10.15-.26 5.17-.54 5.17 2.46 0 19 3 23z" fill="currentColor"/><path d="M159.5 286.5s16-1 16-8c0 0 4-3-14-2h-12s-5 0-5 2-1 7 15 8z" stroke="#000" stroke-miterlimit="10" fill-opacity=".2" fill="#fff"/><path d="M145.5 301.5s-1-18-1-23c0 0 .37-3.41 15.68-2.2s10.15-.26 10.15-.26 5.17-.54 5.17 2.46 0 19 3 23z" fill="none" stroke="#000" stroke-miterlimit="10"/><path d="M167.5 282.5l4.79.67.55 18.33h5.66s-2.64-3-2.82-15l-.18-8s-1-3-4-2.5v3.5a6.93 6.93 0 0 1-4 3z" fill-opacity=".2"/><circle cx="164" cy="291" r="1.5"/><circle cx="155.5" cy="291.5" r="1.5"/><circle cx="148.5" cy="288.5" r="1.5"/><circle cx="171.5" cy="288.5" r="1.5"/><path d="M146 200s3 68 2 79c0 0 2 6 12 5s11.5-4.5 11.5-4.5-3-75-2-80c0 0-18 0-23.5.5z" fill="#6d6e70" stroke="#000" stroke-miterlimit="10"/><path d="M161.5 200.5s0 20 1 27 3 24 4 35a166.5 166.5 0 0 1 .61 20s4.39-2 4.39-3-1.38-41.67-1.69-48.33-.31-31.67-.31-31.67h-8z" fill-opacity=".2"/><path d="M146.43 210.28a31.28 31.28 0 0 0 13.07 3.22c7 0 9.83-3.22 9.83-3.22M147.43 222.28a31.28 31.28 0 0 0 13.07 3.22c7 0 9.83-3.22 9.83-3.22M147.43 234.28a31.28 31.28 0 0 0 13.07 3.22c7 0 9.83-3.22 9.83-3.22M147.43 246.28a31.28 31.28 0 0 0 13.07 3.22c7 0 9.83-3.22 9.83-3.22M148.43 259.28a31.28 31.28 0 0 0 13.07 3.22c7 0 9.83-3.22 9.83-3.22M148.43 271.28a31.28 31.28 0 0 0 13.07 3.22c7 0 9.83-3.22 9.83-3.22" fill="none" stroke="#000" stroke-miterlimit="10"/><path d="M144.5 281.5l2 21 33-1s-4-6-4-23c0 0-1 8-15 8s-15-4-16-5z" fill-opacity=".2"/>
    <path d="M143 89s-39 6-64 66 15.5 70.5 34.5 74.5 85 13 102-27-40-117-72.5-113.5z" fill="currentColor"/><path d="M143 88s-39 6-64 66 15.5 70.5 34.5 74.5 85 13 102-27-40-117-72.5-113.5z" fill="none" stroke="#000" stroke-miterlimit="10"/><path d="M99 121.07S122 96 139.5 98.5a137.38 137.38 0 0 1 21.88 7.59s4.12-7.59 6.12-8.59-17-9-23-9c-11.5.5-35 16.14-45.5 32.57z" fill-opacity=".2" fill="#fff"/><path d="M143 89s-39 6-64 66 15.5 70.5 34.5 74.5 85 13 102-27-40-117-72.5-113.5z" fill="none" stroke="#000" stroke-miterlimit="10"/><path d="M161.38 106.09a20.31 20.31 0 0 0-1.88 4.41c-1 6 2 11 9 19s20 27 21 45 1 35-13 45-24.21 14.08-24.21 14.08 34.71.42 47.8-19.51c11.41-15.58 10.59-36 0-59.77-11.09-27.31-33.81-44.6-33.81-44.6z" fill-opacity=".2"/><path d="M167.41 97.44c-2.41-.44-5.91 9.06-5.91 9.06s27 14 39 48 8.86 41 5.43 50-17.62 24.63-36 27.81 37.6-2.82 45.6-29.82c11.5-39.5-22.87-80.23-22.87-80.23S175 101 167.41 97.44z" fill-opacity=".1"/><path d="M91.5 140.5s-14 24-12 43 12 26 19 31 9.2 13.33 9.2 13.33S72 224 71.08 186.84c0 0 3.19-39.76 30.31-68.55L113.22 108S95.5 132.5 91.5 140.5z" fill-opacity=".4" fill="#fff"/><circle cx="138.5" cy="106.5" r="2"/><circle cx="111" cy="115" r="2"/><circle cx="164" cy="117" r="2"/><circle cx="185" cy="136" r="2"/><circle cx="194" cy="158" r="2"/><circle cx="201" cy="181" r="2"/><circle cx="200" cy="205" r="2"/><circle cx="183" cy="218" r="2"/><circle cx="164" cy="223" r="2"/><circle cx="142" cy="223" r="2"/><circle cx="118" cy="221" r="2"/><circle cx="97" cy="218" r="2"/><path d="M139.5 98.5s35 3 57 48 13.83 72-24.08 85c-54.92 7-79.92-7-91-16.46-1.5.92-21-20.3-3-60.55C95.74 116 122.5 97.5 139.5 98.5z" fill="none" stroke="#000" stroke-miterlimit="10"/>
    <path d="M127.5 124.5s-43-1-45 16c-1.5 15.5 25 13 25 13h35s27 0 27-13-11-17-42-16z" fill="currentColor"/><path d="M127.5 124.5s-43-1-45 16c-1 15 21 13 25 13h35s27 0 27-13-11-17-42-16z" stroke-width=".75" stroke="#000" stroke-linecap="round" stroke-linejoin="round" fill="none"/><path d="M126 132c-15.5.5-28.5-1.5-30.5 6.5-2 9 16 7 22 7s27-1 30-1 10-1 10-3c0-8-15-10-31.5-9.5z" fill="#461917" stroke-width=".5" stroke="#000" stroke-linecap="round" stroke-linejoin="round"/><path d="M90.5 140.5c0 1-5 9 32 8s35-4.33 35-7.67-8.64-9.23-21.32-8.78-40.68-3.55-45.68 8.45z" fill-opacity=".4" stroke-width=".75" stroke="#000" stroke-linecap="round" stroke-linejoin="round"/><ellipse cx="112" cy="139" rx="2.5" ry="3.5" fill="#fff100"/><ellipse cx="138" cy="139" rx="2.5" ry="3.5" fill="#fff100"/><path d="M93.5 129.5s27-3 41-2c11 0 24 3 29 10s1.39 10.59-.3 11.8 6.3-2.8 6.3-8.8-1.61-11.29-14.3-14.65-30.2-1.18-33.95-1.26-22.75 1.91-27.75 4.91z" fill="#fff" fill-opacity=".2" stroke-width=".75" stroke="#000" stroke-linecap="round" stroke-linejoin="round"/>
    <path d="M130.5 175.5v15a73.09 73.09 0 0 0 1 13s6 1 6 0-1-28-1-28c-2.32-.12-5.22-.44-6 0z" fill="currentColor"/><path d="M130.5 175.5v15a73.09 73.09 0 0 0 1 13s6 1 6 0-1-28-1-28c-2.32-.12-5.22-.44-6 0z" stroke="#000" stroke-linecap="round" stroke-linejoin="round" fill="none"/><path d="M131.65 203a75.68 75.68 0 0 1-1.4-15.06 102.33 102.33 0 0 1 .48-12.27 3 3 0 0 1 1.25-.25 5.33 5.33 0 0 1 1 .1l.43.2s0 .16-.13.72a138.49 138.49 0 0 0-1 14.06 64.14 64.14 0 0 0 1 10.92z" opacity=".4"/><path d="M132 175.67a5 5 0 0 1 .87.08l.25.11a3.34 3.34 0 0 1-.09.52v.05a139.54 139.54 0 0 0-1 14.06 64.67 64.67 0 0 0 1 10.83l-1.16 1.16a77 77 0 0 1-1.3-14.56 107.4 107.4 0 0 1 .46-12.1 2.85 2.85 0 0 1 1-.17m0-.5a3.13 3.13 0 0 0-1.48.33s-.5 3-.5 12.44a72 72 0 0 0 1.5 15.56l2-2a62.68 62.68 0 0 1-1-11 138 138 0 0 1 1-14c.13-.56.15-.92 0-1l-.5-.23a5.57 5.57 0 0 0-1-.1z"/><path d="M137.19 201.56a5.59 5.59 0 0 0-2.48-.65 3.64 3.64 0 0 0-1.34.25 39.16 39.16 0 0 1-1.12-9c0-4.56 1.26-14.93 1.47-16.62l2.54.17.56 15.47z" fill="#461917"/><path d="M133.94 175.83l2.06.17.56 15.25.35 9.94a5.61 5.61 0 0 0-2.21-.5 4 4 0 0 0-1.17.17 39 39 0 0 1-1-8.64c0-4.37 1.16-14.11 1.44-16.36m-.44-.53s-1.5 11.86-1.5 16.89a38.68 38.68 0 0 0 1.2 9.31 3.33 3.33 0 0 1 1.51-.35 5.56 5.56 0 0 1 2.74.85l-.38-10.8-.57-15.7-3-.2z"/><path d="M137.5 201.5v2h-5.7l1.7-2s1-2 4 0z" fill-opacity=".4" stroke-width=".75" stroke="#000" stroke-linecap="round" stroke-linejoin="round"/>
    <path d="M122.5 94.5s4 3 13 3 16-6 16-6a26.39 26.39 0 0 0-1-7c-1-3-10.49-2.87-15.74-1.93s-11.26.93-12.26 3.93z" fill="currentColor"/><ellipse cx="133" cy="26" rx="7.5" ry="6.5" stroke-miterlimit="10" stroke="#000" fill="#be1e2d"/><path d="M140 25c.19.68-5.51 8.12-11.57 6.27a8.65 8.65 0 0 0 7.91.53C141 30 140 25 140 25z" fill="#561317"/><ellipse cx="130.22" cy="22.93" rx="4.46" ry="2.23" transform="matrix(.87 -.5 .5 .87 5.98 68.18)" fill="#ed293b"/><ellipse cx="133" cy="26" rx="7.5" ry="6.5" stroke-width=".75" fill="none" stroke-miterlimit="10" stroke="#000"/><path d="M135.5 82.5s-13 1-13 4 9 4 13 4 15-2 15-6-15-2-15-2z" stroke-linecap="round" stroke-linejoin="round" fill-opacity=".2" fill="#fff" stroke-width=".75" stroke="#000"/><path d="M122.5 94.5s4 3 13 3 16-6 16-6a26.39 26.39 0 0 0-1-7c-1-3-10.49-2.87-15.74-1.93s-11.26.93-12.26 3.93z" stroke-linecap="round" stroke-linejoin="round" fill="none" stroke="#000"/><path d="M148.19 93.77c.31-1.27-.69-6.27-.69-6.27s-7.41-2.59-8.2-2.3 1.86-.8 2-1.75.23-1.43.23-1.43 3.12 0 5.53.25 3.41 1.47 3.41 2.35l.64 2.58.36 4.29-3 2" fill-opacity=".2"/><path d="M133 29.24s-7.5 13.21-6.5 28.88a245.78 245.78 0 0 0 3 26.43s0 2 4 2a14 14 0 0 0 7-2 3.4 3.4 0 0 0 1-2c0-1-11-18.6-8-48.94 0 .03 1-5.84-.5-4.37z" fill="#e6e7e8" stroke-miterlimit="10" stroke="#000"/><path d="M130.5 46.5a94.41 94.41 0 0 0 2 18 145.29 145.29 0 0 0 6 19l.52 1.8s2.48-.8 2.48-2.8c0 0-6.45-14.41-7.23-22.71s-1.77-20.29-.77-26.29c0 0-.08-3.33.21-2.91S130 38 130.5 46.5z" fill="#d0d2d3"/><path d="M133 29.24s-7.5 13.21-6.5 28.88a245.78 245.78 0 0 0 3 26.43s0 2 4 2a14 14 0 0 0 7-2 3.4 3.4 0 0 0 1-2c0-1-11-18.6-8-48.94 0 .03 1-5.84-.5-4.37z" fill="none" stroke-miterlimit="10" stroke="#000"/><path d="M126 46s-9 1-9 6 10 5 13 5 12-1 12-6-8-5-8-5" stroke-linecap="round" stroke-linejoin="round" fill="none" stroke="#000"/>
</g>
</svg>
